<?xml version="1.0" encoding="UTF-8"?>
<svg xmlns="http://www.w3.org/2000/svg" xmlns:xlink="http://www.w3.org/1999/xlink" version="1.1" viewBox="0 0 595.28 841.89">
  <defs>
    <style>
      .cls-1 {
        fill: #424143;
      }

      .cls-2 {
        fill: #fde5c9;
      }

      .cls-3 {
        fill: url(#linear-gradient-4);
      }

      .cls-4 {
        fill: url(#linear-gradient-3);
      }

      .cls-5 {
        fill: url(#linear-gradient-2);
      }

      .cls-6 {
        fill: #231f20;
      }

      .cls-7 {
        fill: url(#New_Gradient_Swatch);
      }

      .cls-8 {
        fill: url(#radial-gradient);
      }

      .cls-9 {
        fill: url(#linear-gradient);
      }

      .cls-10 {
        fill: url(#New_Gradient_Swatch_copy-13);
      }

      .cls-11 {
        fill: url(#New_Gradient_Swatch_copy-14);
      }

      .cls-12 {
        fill: url(#New_Gradient_Swatch_copy-15);
      }

      .cls-13 {
        fill: url(#New_Gradient_Swatch_copy-11);
      }

      .cls-14 {
        fill: url(#New_Gradient_Swatch_copy-10);
      }

      .cls-15 {
        fill: url(#New_Gradient_Swatch_copy-12);
      }

      .cls-16 {
        fill: url(#New_Gradient_Swatch-12);
      }

      .cls-17 {
        fill: url(#New_Gradient_Swatch-15);
      }

      .cls-18 {
        fill: url(#New_Gradient_Swatch-14);
      }

      .cls-19 {
        fill: url(#New_Gradient_Swatch-11);
      }

      .cls-20 {
        fill: url(#New_Gradient_Swatch-13);
      }

      .cls-21 {
        fill: url(#New_Gradient_Swatch-10);
      }

      .cls-22 {
        fill: url(#New_Gradient_Swatch_copy-5);
      }

      .cls-23 {
        fill: url(#New_Gradient_Swatch_copy-4);
      }

      .cls-24 {
        fill: url(#New_Gradient_Swatch_copy-9);
      }

      .cls-25 {
        fill: url(#New_Gradient_Swatch_copy-6);
      }

      .cls-26 {
        fill: url(#New_Gradient_Swatch_copy-3);
      }

      .cls-27 {
        fill: url(#New_Gradient_Swatch_copy-8);
      }

      .cls-28 {
        fill: url(#New_Gradient_Swatch_copy-2);
      }

      .cls-29 {
        fill: url(#New_Gradient_Swatch_copy-7);
      }

      .cls-30 {
        fill: #fff;
      }

      .cls-31 {
        fill: #f15b2b;
      }

      .cls-32 {
        opacity: .8;
      }

      .cls-32, .cls-33 {
        isolation: isolate;
      }

      .cls-32, .cls-34 {
        fill: #f89521;
      }

      .cls-33 {
        fill: none;
        opacity: .5;
        stroke: #f89521;
        stroke-miterlimit: 10;
        stroke-width: 1.55px;
      }

      .cls-35 {
        fill: url(#New_Gradient_Swatch-5);
      }

      .cls-36 {
        fill: url(#New_Gradient_Swatch-7);
      }

      .cls-37 {
        fill: url(#New_Gradient_Swatch-4);
      }

      .cls-38 {
        fill: url(#New_Gradient_Swatch-6);
      }

      .cls-39 {
        fill: url(#New_Gradient_Swatch-9);
      }

      .cls-40 {
        fill: url(#New_Gradient_Swatch-8);
      }

      .cls-41 {
        fill: url(#New_Gradient_Swatch-3);
      }

      .cls-42 {
        fill: url(#New_Gradient_Swatch-2);
      }

      .cls-43 {
        fill: #f15e3b;
      }

      .cls-44 {
        fill: #f2f2f2;
      }

      .cls-45 {
        fill: url(#New_Gradient_Swatch_copy);
      }

      .cls-46 {
        fill: #f47c55;
      }
    </style>
    <linearGradient id="New_Gradient_Swatch_copy" data-name="New Gradient Swatch copy" x1="-81.96" y1="401.51" x2="-49.74" y2="401.51" gradientUnits="userSpaceOnUse">
      <stop offset="0" stop-color="#fdd1af"/>
      <stop offset="1" stop-color="#faad78"/>
    </linearGradient>
    <linearGradient id="New_Gradient_Swatch" data-name="New Gradient Swatch" x1="-56.59" y1="382.75" x2="-17.48" y2="382.75" gradientUnits="userSpaceOnUse">
      <stop offset="0" stop-color="#fdd1af"/>
      <stop offset="1" stop-color="#faad78"/>
    </linearGradient>
    <linearGradient id="New_Gradient_Swatch_copy-2" data-name="New Gradient Swatch copy" x1="-82" y1="375.19" x2="-17.48" y2="375.19" xlink:href="#New_Gradient_Swatch_copy"/>
    <linearGradient id="New_Gradient_Swatch-2" data-name="New Gradient Swatch" x1="-89.04" y1="422.06" x2="-57.29" y2="422.06" xlink:href="#New_Gradient_Swatch"/>
    <linearGradient id="New_Gradient_Swatch_copy-3" data-name="New Gradient Swatch copy" x1="618.73" y1="345.44" x2="642.32" y2="345.44" xlink:href="#New_Gradient_Swatch_copy"/>
    <linearGradient id="New_Gradient_Swatch-3" data-name="New Gradient Swatch" x1="593.52" y1="327.49" x2="638.27" y2="327.49" xlink:href="#New_Gradient_Swatch"/>
    <linearGradient id="New_Gradient_Swatch_copy-4" data-name="New Gradient Swatch copy" x1="596.72" y1="319.4" x2="660.58" y2="319.4" xlink:href="#New_Gradient_Swatch_copy"/>
    <linearGradient id="New_Gradient_Swatch-4" data-name="New Gradient Swatch" x1="622.67" y1="360.01" x2="646.54" y2="360.01" xlink:href="#New_Gradient_Swatch"/>
    <linearGradient id="New_Gradient_Swatch_copy-5" data-name="New Gradient Swatch copy" x1="855.85" y1="359.26" x2="877.77" y2="359.26" xlink:href="#New_Gradient_Swatch_copy"/>
    <linearGradient id="New_Gradient_Swatch-5" data-name="New Gradient Swatch" x1="826.83" y1="345.04" x2="874.87" y2="345.04" xlink:href="#New_Gradient_Swatch"/>
    <linearGradient id="New_Gradient_Swatch_copy-6" data-name="New Gradient Swatch copy" x1="858.24" y1="326.62" x2="877.17" y2="326.62" xlink:href="#New_Gradient_Swatch_copy"/>
    <linearGradient id="New_Gradient_Swatch-6" data-name="New Gradient Swatch" x1="872.25" y1="328.66" x2="882.32" y2="328.66" xlink:href="#New_Gradient_Swatch"/>
    <linearGradient id="New_Gradient_Swatch_copy-7" data-name="New Gradient Swatch copy" x1="873.99" y1="332.82" x2="883.9" y2="332.82" xlink:href="#New_Gradient_Swatch_copy"/>
    <linearGradient id="New_Gradient_Swatch-7" data-name="New Gradient Swatch" x1="266.67" y1="405.77" x2="304.27" y2="405.77" xlink:href="#New_Gradient_Swatch"/>
    <linearGradient id="New_Gradient_Swatch_copy-8" data-name="New Gradient Swatch copy" x1="285.64" y1="383.17" x2="311.9" y2="383.17" xlink:href="#New_Gradient_Swatch_copy"/>
    <linearGradient id="New_Gradient_Swatch-8" data-name="New Gradient Swatch" x1="297.82" y1="370.86" x2="334.28" y2="370.86" xlink:href="#New_Gradient_Swatch"/>
    <linearGradient id="New_Gradient_Swatch_copy-9" data-name="New Gradient Swatch copy" x1="272.73" y1="363.95" x2="330.22" y2="363.95" xlink:href="#New_Gradient_Swatch_copy"/>
    <linearGradient id="New_Gradient_Swatch-9" data-name="New Gradient Swatch" x1="251.47" y1="415.41" x2="324.64" y2="415.41" xlink:href="#New_Gradient_Swatch"/>
    <linearGradient id="New_Gradient_Swatch_copy-10" data-name="New Gradient Swatch copy" x1="111.23" y1="405.99" x2="175.16" y2="405.99" xlink:href="#New_Gradient_Swatch_copy"/>
    <linearGradient id="New_Gradient_Swatch-10" data-name="New Gradient Swatch" x1="118.27" y1="397.04" x2="172.07" y2="397.04" xlink:href="#New_Gradient_Swatch"/>
    <linearGradient id="New_Gradient_Swatch_copy-11" data-name="New Gradient Swatch copy" x1="321.07" y1="553.02" x2="345.44" y2="553.02" xlink:href="#New_Gradient_Swatch_copy"/>
    <linearGradient id="New_Gradient_Swatch-11" data-name="New Gradient Swatch" x1="326.6" y1="549.27" x2="371.83" y2="549.27" xlink:href="#New_Gradient_Swatch"/>
    <linearGradient id="New_Gradient_Swatch_copy-12" data-name="New Gradient Swatch copy" x1="606.89" y1="546.4" x2="661.78" y2="546.4" xlink:href="#New_Gradient_Swatch_copy"/>
    <linearGradient id="New_Gradient_Swatch-12" data-name="New Gradient Swatch" x1="605.88" y1="527.42" x2="662.12" y2="527.42" xlink:href="#New_Gradient_Swatch"/>
    <linearGradient id="New_Gradient_Swatch-13" data-name="New Gradient Swatch" x1="35.99" y1="549.04" x2="102.45" y2="549.04" xlink:href="#New_Gradient_Swatch"/>
    <linearGradient id="New_Gradient_Swatch_copy-13" data-name="New Gradient Swatch copy" x1="57.9" y1="558.35" x2="102.77" y2="558.35" xlink:href="#New_Gradient_Swatch_copy"/>
    <linearGradient id="New_Gradient_Swatch_copy-14" data-name="New Gradient Swatch copy" x1="366.96" y1="561.7" x2="409.98" y2="561.7" xlink:href="#New_Gradient_Swatch_copy"/>
    <linearGradient id="New_Gradient_Swatch-14" data-name="New Gradient Swatch" x1="349.83" y1="551.95" x2="409.98" y2="551.95" xlink:href="#New_Gradient_Swatch"/>
    <linearGradient id="New_Gradient_Swatch-15" data-name="New Gradient Swatch" x1="-150.41" y1="619.81" x2="-48.71" y2="619.81" xlink:href="#New_Gradient_Swatch"/>
    <linearGradient id="New_Gradient_Swatch_copy-15" data-name="New Gradient Swatch copy" x1="-154.31" y1="632.11" x2="-49.35" y2="632.11" xlink:href="#New_Gradient_Swatch_copy"/>
    <linearGradient id="linear-gradient" x1="-3052.5" y1="-5447.29" x2="-2915.7" y2="-5618.8" gradientTransform="translate(3130.33 -4731.86) rotate(1.1) scale(1 -1)" gradientUnits="userSpaceOnUse">
      <stop offset=".3" stop-color="#be2026"/>
      <stop offset=".3" stop-color="#c22326"/>
      <stop offset=".4" stop-color="#ce3e27"/>
      <stop offset=".5" stop-color="#df6c26"/>
      <stop offset=".7" stop-color="#f6ae25"/>
      <stop offset=".7" stop-color="#ffc42d"/>
    </linearGradient>
    <linearGradient id="linear-gradient-2" x1="-3049.67" y1="-5489.87" x2="-2886.37" y2="-5618.77" gradientTransform="translate(3115.83 -4731.76) rotate(1.1) scale(1 -1)" gradientUnits="userSpaceOnUse">
      <stop offset="0" stop-color="#fee200"/>
      <stop offset=".2" stop-color="#fdb515"/>
      <stop offset=".4" stop-color="#e77024"/>
      <stop offset="1" stop-color="#d71f26"/>
    </linearGradient>
    <radialGradient id="radial-gradient" cx="-2977.44" cy="534.58" fx="-2977.44" fy="534.58" r="56.57" gradientTransform="translate(3019.03 266.68) rotate(1.1)" gradientUnits="userSpaceOnUse">
      <stop offset=".7" stop-color="#fff" stop-opacity=".5"/>
      <stop offset="1" stop-color="#fff" stop-opacity="0"/>
    </radialGradient>
    <linearGradient id="linear-gradient-3" x1="-2929.64" y1="639.67" x2="-2929.64" y2="559.72" gradientTransform="translate(3019.03 266.68) rotate(1.1)" gradientUnits="userSpaceOnUse">
      <stop offset=".5" stop-color="#fff" stop-opacity=".5"/>
      <stop offset="1" stop-color="#fff" stop-opacity="0"/>
    </linearGradient>
    <linearGradient id="linear-gradient-4" x1="-2978.78" y1="-5450.19" x2="-2978.78" y2="-5585.6" gradientTransform="translate(3115.83 -4731.76) rotate(1.1) scale(1 -1)" xlink:href="#linear-gradient-3"/>
  </defs>
  <!-- Generator: Adobe Illustrator 28.7.1, SVG Export Plug-In . SVG Version: 1.2.0 Build 142)  -->
  <g>
    <g id="Layer_1">
      <g>
        <path class="cls-2" d="M-299.2,969.89s-174.78-57.52-169.24-191.99c5.54-134.47,169.24-147.11,169.24-147.11,0,0-124.95-153.51,48.52-206.27,0,0-81.2-68.33,12.92-112.66,0,0-123.64-189.69,83.04-305.76C51.97-109.96,201.45,47.26,201.45,47.26c0,0,42.44-67.27,101.5-18.27,0,0,14.76-161.06,191.92-146.85,177.16,14.21,156.22,181.04,156.22,181.04,0,0,148.28-82.72,131.67,75.81,0,0,155.02,2.14,173.47,153.78,18.45,151.64-99.65,187.97-99.65,187.97,0,0,125.49,14.48,31.37,105.16,0,0,169.78,11.71,175.32,185.45,5.54,173.74-73.54,200.9-73.54,200.9l-1288.92-2.37Z"/>
        <g>
          <path class="cls-45" d="M-49.74,395.46h-31.23l-.99,2.81c7.98,3.82,16.17,7.13,24.67,9.29,2.71-6.86,7.55-12.1,7.55-12.1Z"/>
          <path class="cls-7" d="M-53.53,377.02c-5.86,7.66-2.66,16.83,4.12,23.99,8.68,1.21,16.21,1.84,17.94.72,4.57-2.96,7.26-20.45,7.26-20.45l6.73-1.34v-16.76c-12.94,3.81-28.08,2.97-36.05,13.84Z"/>
          <path class="cls-28" d="M-53.53,377.02c7.97-10.87,23.11-10.03,36.05-13.84v-7.71c-77.75-26.09-63.5,39.99-63.5,39.99,0,0,17.33,3.56,31.56,5.55-6.78-7.17-9.98-16.33-4.12-23.99Z"/>
          <path class="cls-6" d="M-58.37,366.49s40.89,8.34,86.63-35.25c0,0-71.03-3.74-126.99,24.23,0,0,1.61,28.88,17.76,39.99l11.3-22.47s-9.15-7.98-2.15-13.03c7-5.05,13.45,6.53,13.45,6.53Z"/>
          <path class="cls-46" d="M-131.82,465c-9.15,11.32-18.29,22.18-27.05,33.32,1,1.3,2.01,2.59,3.01,3.89l17.31-16.8,6.27-.11c-.67-6.78-.49-13.67.46-20.3Z"/>
          <path class="cls-31" d="M-2.41,439.79l-56.5-21.38h-30.13l-58.65,15.88s-4.12,3.65-10.72,10.01c-7.19,9.16-14.62,18.14-21.96,27.15,7.38,8.73,14.4,17.69,21.5,26.86,8.76-11.14,17.91-22,27.05-33.32-.95,6.63-1.13,13.52-.46,20.3l114.8-2.08,15.07-43.42Z"/>
          <path class="cls-46" d="M-182.5,468.95c.72.83,1.42,1.67,2.13,2.51,7.34-9.01,14.77-17.99,21.96-27.15-6.26,6.03-14.74,14.5-24.09,24.64Z"/>
          <polygon class="cls-30" points="-70.75 448.05 -76.71 456.82 -70.75 464.59 -66.31 456.32 -70.75 448.05"/>
          <path class="cls-46" d="M-132.45,483.36l-6.1,2.04s-15.6,32.39-12.91,63.95H-38.46s.34-2.78,1.18-7.45c-19.11-1.2-38.06-2.94-57.41-7.49-24.79-6.36-36.06-28.24-37.76-51.05Z"/>
          <path class="cls-46" d="M-24.27,497.33c2-4.73,4.25-9.49,6.79-14.11l45.74,68.65h11.52c-20.63-28.71-38.71-58.59-57.79-88.48-2.95,11.21-5.03,22.42-6.25,33.94Z"/>
          <path class="cls-31" d="M-2.41,439.79l-130.04,43.57c1.7,22.81,12.97,44.69,37.76,51.05,19.35,4.55,38.3,6.29,57.41,7.49,1.72-9.53,5.57-26.91,13.02-44.58,1.23-11.52,3.3-22.74,6.25-33.94,19.08,29.89,37.17,59.77,57.79,88.48h26.69L-2.41,439.79Z"/>
          <path class="cls-30" d="M-71.53,456.39c-.76,2.68-23.57,82.43-47.38,104.65l36.8,38.83c11.27-46.53,13.53-95.81,10.58-143.49Z"/>
          <path class="cls-44" d="M-42.65,563.06s-9.3-58.92-28.85-106.74c0,0,0,.03-.02.07,2.95,47.67.69,96.96-10.58,143.49l.15.16,39.3-36.97Z"/>
          <path class="cls-42" d="M-81.96,398.27l-7.08,20.14,18.3,27.44,11.84-27.44c-.53-3.72.29-7.48,1.62-10.85-8.5-2.16-16.69-5.48-24.67-9.29Z"/>
          <polygon class="cls-46" points="-96.98 422.76 -83.62 467 -70.75 448.05 -59.99 468.09 -50.43 423.97 -61.46 460.29 -70.75 445.86 -82.72 460.02 -96.98 422.76"/>
          <path class="cls-46" d="M-32.99,497.44h-21.88c-.89,0-1.61-.72-1.61-1.61s.72-1.61,1.61-1.61h21.88c.89,0,1.61.72,1.61,1.61s-.72,1.61-1.61,1.61Z"/>
        </g>
        <g>
          <path class="cls-26" d="M641.08,339.69h-22.35s2.78,5.51,3.94,11.49c6.77-1.97,13.36-4.41,19.65-7.41l-1.23-4.07Z"/>
          <path class="cls-41" d="M635.15,334.53c3.9-4.68,4.68-12.48-.78-14.82-12.25-4.76-26.86-5.96-37.64-13.96l-3.2,20.29h4.68s-.52,18.19,3.64,22.35c1.97,1.97,10.87.12,19.71-2.37,5.33-2.83,10.04-6.51,13.6-11.5Z"/>
          <path class="cls-23" d="M660.58,305.77s-41.07-21.31-62.38-9.36l-1.47,9.34c10.78,8,25.4,9.2,37.64,13.96,5.46,2.34,4.68,10.14.78,14.82-3.57,4.99-8.28,8.67-13.6,11.5,9.82-2.77,19.54-6.34,19.54-6.34l19.49-33.92Z"/>
          <path class="cls-6" d="M637.19,312.79s-41.72-.39-72.13-31.97c0,0,72.13-4.29,109.95,21.44,0,0-9.75,26.12-33.92,37.43l1.56-20.27s12.87-5.07,5.46-12.87c-7.41-7.8-10.92,6.24-10.92,6.24Z"/>
          <path class="cls-6" d="M710.24,420.4c-5.46-4.68-11.7-9.36-17.94-14.04-.36,3.59-1.05,7.02-1.61,10.44,5.23.72,8.36,1.26,8.36,1.26,0,0,54.58,63.94,114.37,76.94,0,0,36.03-26.06,50.17-103.15-2.39-.1-4.76-.29-7.12-.59-7.51,32.05-23.54,61.54-40.96,89.18-38.21-13.26-73.3-32.75-105.27-60.04Z"/>
          <path class="cls-1" d="M827.13,380.08l-28.27,59.82c-1.04-3.12-81.1-46.79-101.37-72.26,0,0-42.89-12.09-64.85-9.94,0,0-40.94,7.86-67.58,27.1,0,0-13.73,25.62-28.2,57.69,11.05,6.81,21.12,14.6,31.46,22.11,5.22-12.85,12-26.55,20.18-36.65,16.77-20.72,79.4-14.27,102.19-11.14.56-3.41,1.25-6.84,1.61-10.44,6.24,4.68,12.48,9.36,17.94,14.04,31.97,27.29,67.06,46.79,105.27,60.04,17.42-27.64,33.45-57.13,40.96-89.18-10.7-1.34-20.93-4.79-29.34-11.19Z"/>
          <path class="cls-43" d="M700.19,536.75c-7.32-35.03-35.7-168.9-43.86-177.82l-5.58-.81-5.55-.5-4.98-.23-4.29.02-3.28.21-4.6,1-4.68,1.15-5.17,1.38-6.04,1.8s15.1,134.51,4.59,180.26c27.37,7.73,58.82,7.73,83.44-6.46Z"/>
          <polygon class="cls-30" points="637.46 376.99 634.61 388.28 643.18 397.27 645.71 385.88 637.46 376.99"/>
          <path class="cls-44" d="M644.74,400.13c-.56-3.1-1.34-6.2-2.27-9.27-1.2-2.39-1.88-3.73-1.88-3.73,7.8,33.53-11.93,122.15-11.93,122.15,7.31,16.88,42.84,43.94,42.84,43.94.26-.31.56-.76.88-1.32-1.21-23.52-4.47-46.7-8.93-70.68-5.46-28.07-12.48-53.02-18.71-81.1Z"/>
          <path class="cls-30" d="M642.46,390.86c.94,3.06,1.71,6.17,2.27,9.27,6.24,28.07,13.26,53.02,18.71,81.1,4.46,23.98,7.71,47.16,8.93,70.68,5.22-9.01,18.31-48.63,18.31-48.63-8.42-32.17-40.15-96.33-48.23-112.41Z"/>
          <polygon class="cls-46" points="637.46 376.99 632.33 397.27 611.45 368.44 631.22 391.27 637.43 376.25 648.88 386 654.93 362.35 651.81 392.46 637.46 376.99"/>
          <path class="cls-1" d="M614.29,362.35s49.41,157.61,12.76,281.85c0,0-32.49-2.6-50.68-29.63,0,0,32.56-57.6,29.63-85.26-2.93-27.65-29.63-151.62-29.63-151.62l4.95-2.61,4.5-2.16,4.81-2.13,5.06-2.07,5.44-2.05,4.86-1.69,8.31-2.63Z"/>
          <path class="cls-43" d="M827.13,380.08c8.41,6.4,18.63,9.85,29.34,11.19.88-3.77,1.65-7.58,2.29-11.43-9.64-1.1-19.16-4.64-26.75-10.07l-4.87,10.3Z"/>
          <path class="cls-43" d="M863.59,391.85c.69-3.76,1.33-7.64,1.91-11.65-2.24.02-4.49-.11-6.74-.36-.64,3.84-1.4,7.65-2.29,11.43,2.35.29,4.73.49,7.12.59Z"/>
          <path class="cls-37" d="M622.67,351.18c.5,2.59.67,6.43.2,8.79l14.56,16.28,9.12-18.45-4.22-14.03c-6.29,3.01-12.88,5.44-19.65,7.41Z"/>
          <path class="cls-1" d="M652.38,358.38s46.53,157.05,45.19,266.1c-.02,1.78,1.95,2.86,3.44,1.88,8.46-5.53,29.46-20.3,32.36-32.2,0,0-37.57-120.21-34.83-178.7,1.56-33.27-1.04-47.83-1.04-47.83l-8.55-2.23-10.31-2.56-8.63-1.78-9.18-1.49s-5.88-1.03-8.45-1.19Z"/>
          <path class="cls-6" d="M698.65,401.3l-30.02-4.29,12.36-10.14-17.59-26.88-2.58-.42s-5.88-1.03-8.45-1.19c0,0,27.02,91.2,39.28,182.86h0l6.99-139.95Z"/>
          <path class="cls-6" d="M605.97,364.97l-3.61,1.26-2.31,29.61,15.84,6.16-27.3,17.62s36.93,84.59,51.92,128.02c1.54-96.7-26.23-185.3-26.23-185.3l-8.31,2.63Z"/>
          <path class="cls-46" d="M862.68,386.29c0,1.29-.7,2.34-1.56,2.34s-1.56-1.05-1.56-2.34.7-2.34,1.56-2.34,1.56,1.05,1.56,2.34Z"/>
          <path class="cls-1" d="M860.98,400.26c0,1.65-1.34,2.99-2.99,2.99s-2.99-1.34-2.99-2.99,1.34-2.99,2.99-2.99,2.99,1.34,2.99,2.99Z"/>
          <path class="cls-1" d="M858.75,408.96c0,1.65-1.34,2.99-2.99,2.99s-2.99-1.34-2.99-2.99,1.34-2.99,2.99-2.99,2.99,1.34,2.99,2.99Z"/>
          <path class="cls-1" d="M856.47,416.37c0,1.65-1.34,2.99-2.99,2.99s-2.99-1.34-2.99-2.99,1.34-2.99,2.99-2.99,2.99,1.34,2.99,2.99Z"/>
          <path class="cls-1" d="M688.92,405.85s-.08,0-.12,0l-9.1-1.43c-.43-.07-.72-.47-.65-.89.07-.43.46-.72.89-.65l9.1,1.43c.43.07.72.47.65.89-.06.38-.39.66-.77.66Z"/>
          <path class="cls-22" d="M862.57,363.3c-3.6,2.57-5.56,9.07-6.72,16.17,5.73.93,9.64.74,9.64.74l4.61-15.29c7.55-6.38,8.58-16.6,7.07-26.61-2.84,9.76-7.22,18.78-14.6,25Z"/>
          <path class="cls-35" d="M858.24,310.63c-7.85,2.57-17.99,6.66-15.18,9.89,4.44,5.11,12.24.54,13.4.54s7.18,21.25-2.99,27.17-10.54-12.38-10.54-12.38c7.28-20.45-18.04-24.75-12.23-18.29,5.81,6.46-1.5,23.95-3.58,31.67-2.08,7.72,7.46,14.34,7.46,14.34l-2.59,6.21c8.22,6.06,17.24,8.62,23.85,9.69,1.16-7.09,3.12-13.6,6.72-16.17,5.63-4.74,9.51-11.12,12.3-18.2-2.54-12.1-6.04-30.62-16.62-34.47Z"/>
          <path class="cls-25" d="M866.6,308.14s-3.79.99-8.36,2.48c10.58,3.85,14.08,22.37,16.62,34.47.87-2.21,1.63-4.48,2.31-6.8-2.31-15.31-10.57-30.16-10.57-30.16Z"/>
          <path class="cls-38" d="M881.94,310.12c-7,1.44-9.69,21.94-9.69,21.94l1.74,15.15c5.03-11.55,6.82-25.34,8.33-37.12-.12,0-.25,0-.38.02Z"/>
          <path class="cls-29" d="M882.32,310.1c-1.51,11.78-3.3,25.56-8.33,37.12l.95,8.33s13.45-45.05,7.38-45.44Z"/>
        </g>
        <g>
          <path class="cls-36" d="M266.67,410.06s28.59,31.19,31.19,8.32c1.09-9.56,3.72-18.39,6.41-25.43-6.54-1.74-12.82-4.5-18.64-8.16l-18.96,25.28Z"/>
          <path class="cls-27" d="M289.28,379.91l-3.65,4.86c5.81,3.66,12.1,6.42,18.64,8.16,3.75-9.81,7.62-16.15,7.62-16.15-5.78-9.12-22.61,3.13-22.61,3.13Z"/>
          <path class="cls-40" d="M330.22,355.54c-9.64,3.12-20.67,2.07-28.46,7.47-10.33,6.45,1.78,17.72,12.01,23.18,9.49-.55,17.69-1.93,19.44-3.68,2.8-2.8-.52-17.58-2.99-26.96Z"/>
          <path class="cls-24" d="M301.76,363.01c7.8-5.4,18.82-4.34,28.46-7.47-1.2-4.57-2.21-7.87-2.21-7.87,0,0-40.55-12.48-49.9-2.08-9.36,10.4-5.2,30.67,2.6,36.91,4.52,3.61,20.01,4.44,33.07,3.68-10.23-5.46-22.34-16.72-12.01-23.18Z"/>
          <path class="cls-6" d="M294.22,357.55s25.99,3.64,41.59-7.8c15.6-11.44,17.15-30.15,4.68-42.11-12.48-11.96-29.63-8.84-46.27,3.12-16.63,11.96-21.83,36.91-21.83,36.91,0,0-37.95-3.64-36.39,34.31,0,0-52.5,23.91-26.51,67.06,25.99,43.15,77.46-58.22,77.46-58.22l3.64-23.91s-10.92-9.88-6.24-16.63c4.68-6.76,9.88,7.28,9.88,7.28Z"/>
          <path class="cls-39" d="M261.99,429.29c23.1,11.82,45.08,1.06,62.65-15.69-8.99-5.66-20.59-11.63-35.36-17.06,0,0-21.3,3.97-37.66,9.27-.95,9.57,2.51,19.55,10.37,23.48Z"/>
          <path class="cls-14" d="M123.97,381.72c0-.78,3.9-3.12,7.02-2.34-9.36-10.14-8.58-24.95-.78-36.65,4.68-7.02,12.48-5.46,19.49-4.68-1.04-11.4.69-25.54,7.67-34.9-7.41,1.89-17.26,8.3-13.91,29.44,0,0-27.49-14.45-31.71,19.75-2.6,21.06,5.2,27.56,5.2,27.56,0,0-12.48,83.17,6.24,128.91,0,0,24.36-7.35,51.96-18-1.22-3.14-2.24-6.37-3.09-9.65-14.52,4.3-29.3,7.76-44.2,10.49-9.36-35.87-14.04-73.3-3.9-109.95Z"/>
          <path class="cls-21" d="M169.2,454.59c-3.82,1.8-7.72,3.53-11.7,5.14,0,0-33.14-73.95-12.48-81.91,1.93-.74,22.35-19.19,12.48-36.37-9.88-17.18,7.28-39.01,7.28-39.01,0,0-3.33-.33-7.4.71-6.98,9.36-8.71,23.5-7.67,34.9-7.02-.78-14.82-2.34-19.49,4.68-7.8,11.7-8.58,26.51.78,36.65-3.12-.78-7.02,1.56-7.02,2.34-10.14,36.65-5.46,74.08,3.9,109.95,14.9-2.74,29.67-6.2,44.2-10.49-2.22-8.64-3.17-17.68-2.87-26.59Z"/>
          <path class="cls-30" d="M318.2,472.16c.53,10.08,1.45,25.22,2.87,41.38,1.8-1.23,3.65-2.34,5.53-3.33-1.27-15.65-2.08-31.45-3.78-47.39-1.53,3.07-3.08,6.19-4.62,9.34Z"/>
          <path class="cls-44" d="M351.75,439.59c.1-1.37-.29-2.72-1.13-3.8-2.84-3.68-10.58-12.49-25.98-22.19-17.56,16.76-39.55,27.51-62.65,15.69-7.86-3.93-11.32-13.92-10.37-23.48-6.57,2.13-12.34,4.47-15.62,6.85-10.19,7.41-35.64,27.24-66.8,41.94-.3,8.91.65,17.95,2.87,26.59,22.72-6.72,44.82-15.52,65.75-26.94.56,1.67,1.02,3.34,1.46,5,2.97-2.2,5.55-4.39,7.64-6.56l70.7,7.05s.18,4.75.58,12.43c1.53-3.16,3.08-6.28,4.62-9.34,1.7,15.95,2.51,31.74,3.78,47.39,8.84-4.69,18.44-6.85,28.31-7.06-3.09-26.66-3.99-52.16-3.15-63.57Z"/>
          <path class="cls-30" d="M172.07,481.18c.84,3.28,1.87,6.51,3.09,9.65,23.29-8.99,48.89-20.32,64.12-31.59-.43-1.66-.9-3.33-1.46-5-20.93,11.42-43.03,20.21-65.75,26.94Z"/>
          <path class="cls-13" d="M345.44,595.37c-3.22-8.13-6.1-16.44-8.59-24.95-6.17-19.82-8.6-39.89-10.25-60.21-1.88,1-3.72,2.1-5.53,3.33,2.04,23.2,5.11,48.5,9.54,63.9,0,0,3.46,7.31,8.9,18.37.55-.04,1.1-.07,1.64-.07,1.43-.13,2.85-.25,4.28-.38Z"/>
          <path class="cls-19" d="M363.88,569.13s-5.14-32.81-8.98-65.97c-9.87.21-19.47,2.36-28.31,7.06,1.65,20.32,4.09,40.39,10.25,60.21,2.49,8.5,5.37,16.81,8.59,24.95,8.8-.78,17.6-1.53,26.4-2.25-4.62-11.49-7.81-20.56-7.95-24Z"/>
          <path class="cls-30" d="M298.14,552.88c1.57-32.02,26.23-71.09,26.23-71.09v-1.69c-.45-5.74-.95-11.5-1.56-17.28-13.78,27.55-28.65,58.96-24.67,90.06Z"/>
          <path class="cls-44" d="M213.65,457.36c.77-2.55,1.87-5.02,3.31-7.3-2.99,2.03-5.79,5.09-7.99,9.67-9.36,19.53,13.52,31.42,13.52,31.42-3.8,5.99-6.22,12.64-7.59,19.61,10.32-8.38,24.03-13.48,36.18-17.53-20.27,2.34-43.67-13.26-37.43-35.87Z"/>
          <path class="cls-44" d="M283.05,458.14c9.36-.78,19.49,1.56,24.17,10.14,3.12,6.24,2.34,12.48,0,18.71-7.02,17.15-30.41,13.26-44.45,8.58,11.39,9.49,29.44,12.82,42.51,6.66,4.13-11.66,9.43-23.04,14.78-33.87-8.46-11.32-24.06-13.1-37.01-10.22Z"/>
          <path class="cls-44" d="M238.6,448.01s-11.88-4.56-21.64,2.06c-1.44,2.28-2.54,4.74-3.31,7.3-6.24,22.61,17.16,38.21,37.43,35.87-12.15,4.05-25.86,9.15-36.18,17.53-5.39,27.38,5.37,59.62,11.71,75.32,24.57,14.51,54.93,3.88,73.23-16.77-1.51-5.06-1.99-10.62-1.7-16.42-2.18-17.02,1.3-34.13,7.14-50.65-13.07,6.16-31.13,2.83-42.51-6.66,14.04,4.68,37.43,8.58,44.45-8.58,2.34-6.24,3.12-12.48,0-18.71-4.68-8.58-14.82-10.92-24.17-10.14,12.95-2.88,28.55-1.1,37.01,10.22.92-1.86,1.84-3.71,2.75-5.54.61,5.78,1.11,11.54,1.56,17.28v-30.02l-85.78-2.08Z"/>
        </g>
        <g>
          <rect class="cls-30" x="-299.2" y="533.46" width="1183.1" height="440.73"/>
          <path class="cls-15" d="M640.61,529.57c-6.46,8.88-16.95,12.91-26.64,9.69-2.93-.98-4.97-3.14-6.49-5.77.18.69.31,1.06.31,1.06,0,0-5.12,8.34,9.01,13.1,14.12,4.76,27.04-5.57,27.04-5.57,0,0,8.48,21.39,13.92,21.15,1.86-.08,3.37-2.04,4.02-5.79-9.77-5.77-16.36-17.17-21.17-27.87Z"/>
          <path class="cls-16" d="M652.38,516.65c-13.25-30.07-42.6-15.92-42.6-15.92-6.3,14.82-3.33,28.86-2.29,32.75,1.52,2.63,3.56,4.79,6.49,5.77,9.69,3.23,20.18-.81,26.64-9.69,4.81,10.7,11.4,22.1,21.17,27.87,1.25-7.2-.69-21.01-9.4-40.79Z"/>
          <path class="cls-6" d="M504.76,534.71c-.04.28-.09.56-.13.83,0,0,46.34,8.33,89.1,1.77-.49-2.15-.87-4.34-1.14-6.54-28.78,6.08-58.64,7.72-87.83,3.94Z"/>
          <path class="cls-1" d="M504.76,534.71c29.19,3.78,59.05,2.14,87.83-3.94-1.18-9.61-.2-19.5,3.3-28.28-13.87,1.49-32.18,2.61-39.79-.74,0,0,4.3-17.61,12.23-37.16-10.34-7.52-20.41-15.31-31.46-22.11-13.72,30.4-28.1,66.59-32.1,92.23Z"/>
          <path class="cls-43" d="M609.78,500.73c-3.14.46-8.14,1.15-13.9,1.77-3.5,8.78-4.48,18.67-3.3,28.28.27,2.2.65,4.39,1.14,6.54,4.76-.73,9.47-1.64,14.07-2.77-.63-2.32-1.08-4.68-1.39-7.05-1.16-9.01-.04-18.3,3.38-26.76Z"/>
          <path class="cls-1" d="M588.07,534.53c0,1.58-1.28,2.86-2.86,2.86s-2.86-1.28-2.86-2.86,1.28-2.86,2.86-2.86,2.86,1.28,2.86,2.86Z"/>
          <path class="cls-46" d="M601.79,533.41c0,1.16-.94,2.1-2.1,2.1s-2.1-.94-2.1-2.1.94-2.1,2.1-2.1,2.1.94,2.1,2.1Z"/>
          <path class="cls-1" d="M579.22,535.31c0,1.58-1.28,2.86-2.86,2.86s-2.86-1.28-2.86-2.86,1.28-2.86,2.86-2.86,2.86,1.28,2.86,2.86Z"/>
          <path class="cls-1" d="M571.04,535.31c0,1.58-1.28,2.86-2.86,2.86s-2.86-1.28-2.86-2.86,1.28-2.86,2.86-2.86,2.86,1.28,2.86,2.86Z"/>
          <path class="cls-20" d="M58.36,548.11c14.78,2.69,37.39-.79,44.08-14.61-4.18-13.21-47.43-23.68-61.03-14.53-15.24,10.26,5.3,57.57,16.48,63.57,8.63-8.17,5.09-23.2.47-34.44Z"/>
          <path class="cls-10" d="M58.36,548.11c4.63,11.24,8.16,26.27-.47,34.44,1.06.57,2.03.77,2.89.54,13.45-3.77,2.15-30.67,2.15-30.67,0,0,14.53,7,35.51-9.69,3.88-3.09,4.94-6.23,3.99-9.22-6.69,13.82-29.3,17.29-44.08,14.61Z"/>
          <path class="cls-11" d="M366.96,549.16c4.36,9.45,10.91,20.36,3.63,29.08-.64,1.28-1.47,2.43-2.45,3.42,1.5,1.21,2.88,1.75,4.01,1.43,12.12-3.39,1.94-27.63,1.94-27.63,0,0,13.09,6.3,31.99-8.72,2.74-2.18,3.91-4.38,3.89-6.53-11.77,10.06-28.49,15.27-43.02,8.95Z"/>
          <path class="cls-18" d="M354.71,525.35c-13.11,8.82,3.17,48.08,13.44,56.31.98-.99,1.81-2.14,2.45-3.42,7.27-8.72.73-19.63-3.63-29.08,14.53,6.32,31.25,1.11,43.02-8.95-.15-12.71-42.41-23.51-55.27-14.86Z"/>
          <path class="cls-46" d="M-229.48,546.52c11.66-27.98,30.06-51.65,49.12-75.06-.71-.84-1.41-1.68-2.13-2.51-20.04,21.73-44,51.11-58.29,80.41,0,0,34.02,37.6,77.29,60.25,1-3.26,2.26-6.47,3.77-9.58-26.01-14.64-51.91-29.29-69.76-53.52Z"/>
          <path class="cls-31" d="M-229.48,546.52c17.85,24.22,43.75,38.88,69.76,53.52,4.45-9.16,11.03-17.4,19.12-23.4-16.23-10.01-35.58-24.81-46.91-43.69l11.09-10.76c5.58-8.26,11.48-16.13,17.55-23.86-7.1-9.17-14.12-18.13-21.5-26.86-19.06,23.41-37.46,47.08-49.12,75.06Z"/>
          <path class="cls-46" d="M-155.86,502.21c-1.01-1.31-2.01-2.59-3.01-3.89-6.08,7.73-11.97,15.6-17.55,23.86l20.57-19.97Z"/>
          <path class="cls-46" d="M-163.5,609.61c3.02,1.58,6.08,3.09,9.19,4.51,4.49-12.54,12.93-24.21,24.3-31.34-3.27-1.79-6.85-3.84-10.59-6.15-10.83,8.03-18.96,20.09-22.89,32.98Z"/>
          <path class="cls-17" d="M-113.26,591.14c-2.24-1.03-8.55-3.87-16.76-8.36-8.64,5.42-15.58,13.46-20.39,22.52,3.8,2.17,7.58,4.35,11.32,6.6,4.04,1.61,2.42,13.72,8.07,20.99,11.3,14.53,32.28,8.07,44.39-2.42,8.65,12.12,22.26,22.58,37.28,26.38,6.56-9.72-39.63-54.5-63.91-65.7Z"/>
          <path class="cls-12" d="M-86.62,630.46c-12.11,10.49-33.09,16.95-44.39,2.42-5.65-7.26-4.04-19.37-8.07-20.99-3.74-2.24-7.52-4.43-11.32-6.6-1.52,2.86-2.83,5.81-3.9,8.82,3.07,1.4,6.17,2.72,9.31,3.93,0,0,1.08,32.28,28.52,30.67,27.44-1.61,27.44-11.84,27.44-11.84,0,0,30.72,29.06,39.31,20.45.15-.15.28-.31.39-.48-15.02-3.8-28.62-14.27-37.28-26.38Z"/>
          <circle class="cls-31" cx="-157.02" cy="606.4" r="2.71"/>
        </g>
        <g>
          <path class="cls-30" d="M-285.08,147.28H152.47L-5.72,122.6s-.88-47.59-52.87-28.2c0,0-4.25-36.13-44.42-37.89-40.18-1.76-37.53,32.61-37.53,32.61,0,0-51.11-33.49-81.08-.88-29.96,32.61,17.62,41.42,17.62,41.42l-81.07,17.62Z"/>
          <path class="cls-30" d="M954.48,236.54h-254.7l92.08-14.36s.51-27.7,30.78-16.42c0,0,2.47-21.03,25.86-22.06,23.39-1.03,21.85,18.98,21.85,18.98,0,0,29.75-19.49,47.19-.51,17.44,18.98-10.26,24.11-10.26,24.11l47.19,10.26Z"/>
        </g>
        <g>
          <g>
            <path class="cls-31" d="M169.4,800.93v-56.86h13.94v21.85h23.39v-21.85h13.94v56.86h-13.94v-22.31h-23.39v22.31h-13.94Z"/>
            <path class="cls-31" d="M255.24,801.86c-5.27,0-9.76-1.08-13.63-3.1s-6.82-5.11-8.99-8.83c-2.17-3.87-3.1-8.37-3.1-13.63v-32.07h13.94v32.07c0,2.48.46,4.8,1.39,6.66.93,1.86,2.32,3.41,4.18,4.49,1.86,1.08,3.87,1.55,6.35,1.55s4.49-.46,6.35-1.55,3.1-2.48,4.03-4.49c.93-1.86,1.39-4.18,1.39-6.66v-32.07h13.94v32.07c0,5.11-1.08,9.61-3.25,13.48-2.17,3.87-5.11,6.82-8.99,8.99s-8.52,3.25-13.63,3.25h0v-.15Z"/>
            <path class="cls-31" d="M289.79,800.93v-56.86h13.17l25.87,33v-33h13.17v56.86h-12.39l-26.65-34.24v34.24h-13.17Z"/>
            <path class="cls-31" d="M366.63,800.93v-44.47h-18.59v-12.39h51.13v12.39h-18.59v44.47h-13.94Z"/>
            <path class="cls-31" d="M427.21,801.86c-4.65,0-9.14-.77-13.63-2.48s-8.52-4.03-12.08-6.97l7.75-10.23c3.41,2.79,6.66,4.8,9.61,6.04,2.94,1.24,6.04,1.86,9.3,1.86s4.03-.15,5.58-.62c1.55-.46,2.63-1.08,3.56-1.86.77-.77,1.24-1.86,1.24-2.94s-.62-2.79-1.86-3.72-3.25-1.55-6.04-2.01l-12.55-2.17c-4.65-.77-8.21-2.63-10.69-5.27s-3.72-6.2-3.72-10.38.93-6.82,2.79-9.45c1.86-2.63,4.49-4.65,8.06-6.04,3.56-1.39,7.59-2.17,12.39-2.17s8.52.77,12.7,2.17c4.18,1.39,8.06,3.41,11.16,6.04l-7.44,10.38c-5.89-4.49-11.62-6.82-17.51-6.82s-3.56.15-4.96.62c-1.39.46-2.48.93-3.25,1.7s-1.08,1.55-1.08,2.63.46,2.48,1.55,3.25c1.08.77,2.79,1.39,5.11,1.86l11.77,2.01c5.42.93,9.61,2.63,12.39,5.42,2.79,2.79,4.34,6.35,4.34,10.69s-.93,7.13-2.94,9.92c-2.01,2.79-4.96,4.96-8.68,6.51-3.72,1.55-8.21,2.32-13.32,2.32h0l.46-.31Z"/>
            <path class="cls-31" d="M479.11,801.86c-6.04,0-11-1.55-15.18-4.49-4.03-2.94-6.97-7.28-8.68-13.01l12.86-4.8c1.08,3.25,2.48,5.73,4.34,7.28,1.86,1.55,4.03,2.32,6.82,2.32s5.58-.93,7.44-2.94c1.86-2.01,2.79-4.65,2.79-7.9v-34.09h13.94v34.55c0,4.65-1.08,8.68-3.1,12.08-2.01,3.41-4.8,6.2-8.52,8.06-3.56,2.01-7.9,2.94-12.7,2.94h0Z"/>
            <path class="cls-31" d="M540.47,801.86c-4.34,0-8.21-.77-11.93-2.17-3.72-1.55-6.97-3.56-9.61-6.2-2.79-2.63-4.96-5.73-6.51-9.3-1.55-3.56-2.32-7.44-2.32-11.46s.77-7.9,2.32-11.46c1.55-3.56,3.72-6.66,6.51-9.3,2.79-2.63,6.04-4.8,9.61-6.2,3.72-1.55,7.59-2.17,11.93-2.17s8.21.77,11.93,2.17c3.72,1.55,6.97,3.56,9.61,6.2,2.79,2.63,4.96,5.73,6.51,9.3s2.32,7.44,2.32,11.46-.77,7.9-2.32,11.46-3.72,6.66-6.51,9.3c-2.79,2.63-6.04,4.8-9.61,6.2-3.72,1.55-7.75,2.17-11.93,2.17ZM540.47,789c2.32,0,4.34-.46,6.35-1.24,2.01-.77,3.56-2.01,5.11-3.41,1.39-1.39,2.63-3.25,3.41-5.27.77-2.01,1.24-4.18,1.24-6.51s-.46-4.65-1.24-6.66c-.77-2.01-1.86-3.72-3.41-5.27-1.39-1.39-3.1-2.63-5.11-3.41s-4.03-1.24-6.35-1.24-4.34.46-6.35,1.24c-2.01.77-3.56,2.01-5.11,3.41-1.39,1.39-2.63,3.25-3.41,5.27-.77,2.01-1.24,4.18-1.24,6.66s.46,4.49,1.24,6.51c.77,2.01,1.86,3.72,3.41,5.27,1.39,1.39,3.1,2.63,5.11,3.41s4.03,1.24,6.35,1.24Z"/>
            <path class="cls-31" d="M578.27,800.93v-56.86h28.2c3.87,0,7.28.62,10.23,2.01,2.94,1.39,5.27,3.25,6.97,5.58,1.7,2.48,2.48,5.27,2.48,8.37s-.62,4.49-1.7,6.51c-1.24,2.01-2.79,3.72-4.8,5.11,2.48,1.39,4.49,3.1,6.04,5.27s2.17,4.49,2.17,7.13-.77,6.2-2.48,8.68c-1.7,2.48-4.03,4.49-7.13,5.89-3.1,1.39-6.51,2.17-10.54,2.17h-29.59l.15.15ZM592.21,766.85h13.32c2.01,0,3.72-.46,4.96-1.55,1.24-1.08,1.86-2.32,1.86-4.03s-.62-3.1-1.86-4.03c-1.24-.93-2.79-1.55-4.96-1.55h-13.32v11.16h0ZM592.21,789.47h14.56c2.17,0,3.87-.46,5.11-1.55s1.86-2.48,1.86-4.34-.62-3.25-1.86-4.34c-1.24-1.08-2.94-1.55-5.11-1.55h-14.56v12.08h0v-.31Z"/>
          </g>
          <g>
            <g>
              <g>
                <path class="cls-9" d="M125.09,731.68c-1.86-5.27-4.34-10.23-7.28-14.87-3.1-4.65-6.66-8.83-10.69-12.7-8.06-7.59-17.66-13.48-27.89-17.04-5.11-1.86-10.38-3.1-15.8-3.87-5.27-.77-10.69-.93-15.96-.62-10.54.62-20.92,3.56-30.21,8.21-9.3,4.65-17.35,11.16-23.7,18.75-3.25,3.72-6.04,7.9-8.52,12.08-2.48,4.18-4.34,8.68-5.89,13.32-1.55,4.49-2.63,9.3-3.25,13.94s-.77,9.45-.62,14.1c.46,9.3,2.63,18.44,6.35,26.8,3.72,8.37,8.99,15.96,15.49,22.47,6.51,6.35,14.1,11.77,22.47,15.49,8.37,3.87,17.51,6.2,26.8,6.97,9.3.77,19.06,0,28.51-2.79,9.45-2.63,18.44-7.28,26.34-13.63,7.9-6.35,14.72-14.41,19.52-23.7,4.96-9.3,7.9-19.83,8.52-30.52.62-10.69-.62-21.85-4.18-32.23h0v-.15ZM113.78,765.61c-.77,36.25-30.83,65.23-67.24,64.45-36.41-.77-65.38-30.68-64.76-67.09.77-36.25,30.83-65.23,67.24-64.45,36.41.77,65.38,30.68,64.76,67.09h0Z"/>
                <path class="cls-5" d="M130.98,797.83c-3.87,11-9.92,21.38-17.82,30.37-4.03,4.49-8.37,8.68-13.17,12.24-1.24.93-2.48,1.86-3.72,2.63-1.24.77-2.48,1.7-3.87,2.48s-2.63,1.55-4.03,2.32c-1.39.62-2.79,1.39-4.18,2.01-11.16,5.27-23.55,8.06-35.94,8.21h-4.65c-1.55,0-3.1-.31-4.65-.31s-3.1-.31-4.65-.62c-1.55-.15-3.1-.46-4.65-.77-1.55-.31-3.1-.62-4.49-1.08-1.55-.31-2.94-.93-4.49-1.24-1.55-.46-2.94-.93-4.49-1.55-.77-.31-1.39-.62-2.17-.93l-2.17-.93c-5.73-2.48-11.16-5.58-16.27-9.14s-9.76-7.75-14.1-12.24c-4.18-4.49-8.06-9.45-11.16-14.72-3.25-5.27-5.89-10.85-8.06-16.58-2.01-5.73-3.56-11.77-4.49-17.66-.93-6.04-1.08-12.08-.77-18.13.77-11.93,3.87-23.7,9.14-34.24,5.27-10.54,12.55-19.83,21.07-27.42,4.34-3.72,8.99-7.13,13.79-9.92,1.24-.62,2.48-1.39,3.72-2.01,1.24-.62,2.48-1.24,3.87-1.86,1.24-.62,2.63-1.24,3.87-1.7,1.24-.46,2.63-1.08,3.87-1.55,1.39-.46,2.63-.93,4.03-1.24,1.39-.31,2.63-.77,4.03-1.08,1.39-.31,2.79-.62,4.03-.93,1.39-.31,2.79-.46,4.18-.77,1.39-.15,2.79-.31,4.18-.46,1.39,0,2.79-.31,4.18-.31h8.37c5.58.31,11,1.08,16.27,2.17,5.27,1.24,10.54,3.1,15.49,5.27,9.92,4.49,19.06,10.54,27.11,18.13,7.9,7.59,14.72,16.42,19.52,26.49,2.48,5.11,4.34,10.38,5.73,15.8,1.39,5.42,2.17,11.16,2.32,16.89.46,11.46-1.24,22.93-5.11,34.09h0l.31.31ZM124.01,748.88c-.62-4.96-1.7-9.92-3.41-14.72-3.25-9.61-8.37-18.75-15.34-26.49-6.97-7.59-15.8-13.63-25.41-17.51-9.61-3.87-19.99-5.58-30.37-5.27h-3.87c-1.24.31-2.48.46-3.87.62-1.24.15-2.48.46-3.72.62-1.24.15-2.48.46-3.72.77-1.24.31-2.48.62-3.72.93-1.24.31-2.48.77-3.56,1.24-1.24.46-2.32.93-3.56,1.39-1.24.46-2.32,1.08-3.41,1.55-1.08.46-2.32,1.08-3.41,1.7-1.08.62-2.17,1.24-3.25,1.86-1.08.62-2.17,1.39-3.1,2.01-1.08.77-2.01,1.39-3.1,2.17-4.03,2.94-7.59,6.35-10.85,10.07-6.51,7.44-11.46,15.96-14.56,25.1-3.1,9.14-4.34,18.59-3.72,27.89.31,4.65,1.08,9.3,2.17,13.63,1.08,4.49,2.63,8.68,4.65,12.86,1.86,4.18,4.18,8.06,6.82,11.62,2.63,3.72,5.58,6.97,8.83,10.07,3.25,3.1,6.82,5.89,10.54,8.21,3.72,2.48,7.59,4.49,11.77,6.04,8.21,3.41,16.89,5.11,25.72,5.42,8.83.31,17.82-.93,26.49-3.72,8.52-2.79,16.89-7.28,24.17-13.17,7.28-6.04,13.48-13.48,17.82-22.16,4.49-8.52,6.97-18.28,7.59-28.2.31-4.96,0-9.92-.46-14.87h0l-.15.31Z"/>
                <path class="cls-8" d="M-8.3,801.09s-23.86-43.23,4.34-83.51c0,0,29.13-40.44,93.42-23.08,0,0-35.48-16.89-71.27-1.55,0,0-39.2,16.27-40.28,66,0,0-1.39,19.06,13.94,41.99l-.15.15Z"/>
                <path class="cls-4" d="M32.6,828.67s38.27,9.92,65.38-23.39c0,0,24.17-26.34,8.37-66.62l14.41-4.49s11.77,29.75-4.65,59.34c0,0-12.86,25.56-40.75,33.62,0,0-19.99,7.44-42.76,1.55h0Z"/>
              </g>
              <path class="cls-3" d="M1.46,691.09s-62.9,51.75-10.69,127.82c0,0,31.61,47.41,112.64,18.9,0,0-32.54,31.45-84.28,15.96,0,0-54.85-14.87-61.66-78.09,0,0-7.59-53.92,43.85-84.59h.15Z"/>
            </g>
            <g>
              <path class="cls-34" d="M42.67,820.14c-4.34-.46-8.68-1.39-12.7-2.79l2.01-5.73c3.56,1.24,7.44,2.17,11.31,2.48,1.55,0,2.94.31,4.49.31v6.2c-1.7,0-3.41,0-5.11-.31h0v-.15ZM49.8,820.3v-6.2c5.27,0,10.54-1.24,15.49-3.1l2.17,5.73c-5.73,2.17-11.62,3.25-17.66,3.56ZM69.32,816.12l-2.32-5.73c4.96-2.01,9.45-4.96,13.48-8.52l4.03,4.65c-4.49,4.03-9.61,7.28-15.18,9.61h0ZM86.05,805.12l-4.34-4.49c3.87-3.72,7.13-8.06,9.45-12.86l5.42,2.79c-2.79,5.42-6.35,10.23-10.69,14.56h.15ZM97.67,788.85l-5.58-2.63c2.17-4.8,3.72-10.07,4.18-15.49h0l6.04.46h0c-.62,6.2-2.17,12.08-4.8,17.51h0l.15.15ZM96.43,768.86c.31-5.42-.15-10.69-1.7-15.96l5.89-1.7c1.55,5.89,2.17,11.93,1.86,17.97l-6.2-.31h.15ZM94.26,751.35c-1.55-5.11-4.03-9.92-7.28-14.25l4.96-3.72c3.56,4.8,6.35,10.23,8.21,15.96l-5.89,1.86h0v.15ZM3.16,735.55c-6.35,9.76-9.76,21.69-8.83,34.24,1.55,20.92,14.72,38.27,32.54,46.32l1.08-2.48c-17.04-7.59-29.59-24.17-30.99-44-.93-12.08,2.32-23.39,8.52-32.69l-2.32-1.24h0v-.15ZM12.3,740.51c-5.58,8.06-8.52,17.97-7.75,28.51,1.24,17.04,11.93,31.14,26.49,37.65l-1.08,2.48c-15.49-6.82-26.65-21.85-28.04-39.82-.77-11,2.17-21.54,8.06-30.06l2.32,1.24h0ZM8.9,738.65c-5.89,8.68-8.99,19.37-8.21,30.68,1.39,18.44,12.86,33.78,28.66,40.75l-1.08,2.48c-16.73-7.44-28.82-23.55-30.37-43.07-.93-11.77,2.32-22.93,8.52-32.07l2.32,1.24h.15Z"/>
              <path class="cls-32" d="M41.74,804.5h0c-1.86-.31-3.87-.77-5.73-1.39l1.7-5.11c1.55.46,3.25.93,4.96,1.24l-.93,5.27ZM44.68,804.96l.46-5.42c1.7,0,3.41.15,5.11,0l.31,5.42h-5.89ZM33.37,802.17c-1.86-.77-3.56-1.55-5.27-2.63l2.79-4.65c1.39.93,2.94,1.55,4.49,2.17l-2.01,4.96h0v.15ZM53.52,804.81l-.77-5.27c1.7-.15,3.25-.62,4.96-1.08l1.55,5.11c-1.86.62-3.72.93-5.73,1.24h0ZM25.63,797.99c-1.55-1.08-3.1-2.32-4.49-3.72l3.72-3.87c1.24,1.08,2.48,2.17,3.87,3.25l-3.1,4.34h0ZM61.88,802.64l-1.86-5.11c1.55-.62,3.1-1.24,4.49-2.17l2.63,4.65c-1.7.93-3.41,1.7-5.27,2.48v.15ZM19.12,792.1c-1.24-1.39-2.48-2.94-3.56-4.65l4.49-2.94c.93,1.39,2.01,2.79,3.1,4.03l-4.03,3.56ZM69.78,798.61l-2.94-4.49c1.39-.93,2.79-2.01,4.03-3.1l3.56,4.03c-1.39,1.24-2.94,2.48-4.65,3.56ZM14.01,785.13c-.93-1.7-1.7-3.41-2.48-5.27l5.11-1.86c.62,1.55,1.24,3.1,2.17,4.49l-4.65,2.63h-.15ZM76.45,793.03l-3.87-3.72c1.08-1.24,2.17-2.48,3.25-3.87l4.34,3.1c-1.08,1.55-2.32,3.1-3.72,4.49h0ZM10.6,777.07c-.62-1.86-.93-3.72-1.24-5.73l5.27-.77c.15,1.7.62,3.25,1.08,4.96l-5.11,1.55ZM81.71,786.06l-4.65-2.79c.93-1.39,1.55-2.94,2.32-4.49l4.96,2.01c-.77,1.86-1.55,3.56-2.63,5.27h0ZM9.2,768.4v-5.89l5.42.46c0,1.7-.15,3.41,0,5.11l-5.42.31ZM85.43,778l-5.11-1.7c.46-1.55.93-3.25,1.24-4.96h0l5.27.77h0c-.31,2.01-.77,3.87-1.39,5.73h0v.15ZM9.67,759.57h0c.31-2.01.77-3.87,1.39-5.73l5.11,1.7c-.46,1.55-.93,3.25-1.24,4.8l-5.27-.77ZM81.71,769.02c0-1.7.15-3.41,0-4.96l5.42-.31v5.89l-5.42-.46h0v-.15ZM16.95,753.21l-4.96-2.01c.77-1.86,1.55-3.56,2.63-5.27l4.65,2.79c-.93,1.39-1.55,2.94-2.17,4.49h-.15ZM81.56,761.43c-.15-1.7-.62-3.25-1.08-4.96l5.11-1.55c.62,1.86.93,3.72,1.24,5.73l-5.27.77h0ZM79.7,754.14c-.62-1.55-1.24-3.1-2.17-4.49l4.65-2.63c.93,1.7,1.7,3.41,2.48,5.27l-4.96,1.86h0Z"/>
              <path class="cls-34" d="M37.71,788.69h0c-5.27-2.48-9.61-6.82-11.93-12.24l3.1-1.39c2.01,4.65,5.73,8.37,10.38,10.54h0l-.77,1.55-.62,1.55h-.15ZM38.33,787.14h0ZM39.42,789.31l1.24-3.25c4.8,1.86,9.92,1.86,14.72,0l1.08,3.25c-5.58,2.01-11.62,2.01-17.2,0h.15ZM24.85,774.59c-2.01-5.58-2.01-11.62,0-17.2l3.25,1.24c-1.86,4.8-1.86,9.92,0,14.72l-3.25,1.08v.15ZM58.32,788.85l-1.39-3.1c4.65-2.01,8.37-5.73,10.54-10.38h0l3.1,1.39h0c-2.48,5.42-6.82,9.61-12.24,12.08ZM68.23,773.67c1.86-4.8,1.86-9.92,0-14.72l3.25-1.08c2.01,5.58,2.01,11.62,0,17.2l-3.25-1.24h0v-.15Z"/>
              <path class="cls-34" d="M7.81,740.51c8.68-13.32,23.55-22.16,40.59-22.16s30.52,7.9,39.35,20.14l.46-.31c-1.55-2.17-3.25-4.18-5.27-6.2-9.3-9.3-21.54-14.41-34.55-14.41s-25.41,5.11-34.55,14.41-4.65,5.27-6.51,8.06l.46.31h0v.15Z"/>
              <g>
                <path class="cls-34" d="M64.67,714.33c-.77-.15-1.39-.46-2.17-.62h0v.31c.62.15,1.39.46,2.17.62v-.31h0Z"/>
                <path class="cls-34" d="M71.18,716.81c-.62-.31-1.39-.62-2.17-.93v.31c.62.31,1.24.62,2.01.93v-.31h.15Z"/>
                <path class="cls-34" d="M74.28,718.35s-.15,0-.31-.15h0c-.62-.31-1.08-.62-1.7-.93h0v.31c.46.31,1.24.62,1.86,1.08v-.31h.15Z"/>
                <path class="cls-34" d="M67.92,715.41c-.31,0-.62-.31-1.08-.46h-.46v.31c.62.31,1.39.46,2.01.77v-.31h0l-.46-.31Z"/>
                <path class="cls-34" d="M51.19,711.85h-2.32v.31h2.32v-.31Z"/>
                <path class="cls-34" d="M54.6,712.16h-2.01v.31c.77,0,1.55,0,2.32.15v-.46h-.31Z"/>
                <path class="cls-34" d="M61.42,713.4c-.77-.15-1.55-.31-2.17-.46v.31c.62,0,1.39.31,2.17.46v-.31h0Z"/>
                <path class="cls-34" d="M48.25,712.16v-.31h-2.32v.31h2.32Z"/>
                <path class="cls-34" d="M90.08,731.52c-.31-.31-.62-.77-.93-1.08h0c-.15-.15-.31-.31-.46-.62l-.31.31c.46.62,1.08,1.08,1.55,1.7l.31-.31h-.15Z"/>
                <path class="cls-34" d="M92.25,734.31h0c-.31-.31-.62-.77-.93-1.08l-.31.31c.46.62.93,1.24,1.39,1.86h.31v-.15l-.46-.93Z"/>
                <path class="cls-34" d="M87.6,729.2l.31-.31c-.46-.62-1.08-1.08-1.55-1.7l-.31.31c.46.46,1.08,1.08,1.55,1.7Z"/>
                <path class="cls-34" d="M80.01,722.07h0c-.31-.31-.62-.46-1.08-.62v.31c.46.46,1.08.93,1.7,1.24v-.31h.15l-.77-.62Z"/>
                <path class="cls-34" d="M77.22,720.21h0c-.31-.15-.77-.46-1.08-.62h0l-.46-.31v.31c.46.31,1.08.77,1.7,1.24v-.31h.15l-.31-.31Z"/>
                <path class="cls-34" d="M85.43,726.57l-.31-.31h0c-.46-.46-.93-.77-1.39-1.24l-.31.31c.62.46,1.08,1.08,1.7,1.55l.31-.31h0Z"/>
                <path class="cls-34" d="M82.8,724.24l-.46-.31h0c-.31-.31-.62-.46-1.08-.77h0l-.31.31c.62.46,1.24.93,1.86,1.39l.31-.31h0l-.31-.31Z"/>
                <path class="cls-34" d="M58.01,712.62h-1.86v.31c.77,0,1.39.15,2.17.31v-.46h0l-.31-.15Z"/>
                <path class="cls-34" d="M10.91,727.19l-.31-.31c-.62.46-1.08,1.08-1.7,1.55l.31.31c.46-.62,1.08-1.08,1.55-1.55h.15Z"/>
                <path class="cls-34" d="M13.39,724.86l-.31-.31h0c-.31.31-.62.62-1.08.93h0l-.31.31.31.31c.62-.46,1.08-1.08,1.7-1.55h0l-.31.31Z"/>
                <path class="cls-34" d="M16.18,722.69v-.31h-.15c-.62.46-1.24.93-1.7,1.39l.31.31c.62-.46,1.24-.93,1.86-1.39h-.31Z"/>
                <path class="cls-34" d="M6.26,732.14l-.31-.31s-.15.15-.31.31h0c-.15.31-.31.46-.62.77h.31c.46-.31.93-.93,1.39-1.55h0l-.46.77Z"/>
                <path class="cls-34" d="M3.01,736.64c.46-.62.77-1.24,1.24-1.7h-.31c-.15,0-.46.31-.62.62h0s-.15.31-.31.31h.31v.15l-.31.62Z"/>
                <path class="cls-34" d="M18.97,720.68v-.31c-.46.15-.77.31-1.08.62h-.15s-.15,0-.31.15v.31c.77-.46,1.55-.93,2.17-1.24h0l-.62.46Z"/>
                <path class="cls-34" d="M8.43,729.51l-.31-.31h0s-.15.31-.31.31h0l-.93.93h0l.31.31c.46-.62.93-1.08,1.55-1.7h0l-.31.46Z"/>
                <path class="cls-34" d="M21.91,718.97v-.31c-.93.31-1.55.77-2.17,1.24v.31c.77-.46,1.55-.77,2.17-1.08h0v-.15Z"/>
                <path class="cls-34" d="M34.61,713.86v-.31c-.31,0-.62,0-.77.15h-.15c-.31,0-.62.15-.93.31v.31c.77-.15,1.55-.46,2.32-.62h0l-.46.15Z"/>
                <path class="cls-34" d="M44.84,712.31v-.31h-2.32v.31c.77,0,1.55,0,2.32-.15h0v.15Z"/>
                <path class="cls-34" d="M41.43,712.62v-.31c-.77,0-1.55.15-2.32.31v.31c.77,0,1.55-.31,2.32-.31Z"/>
                <path class="cls-34" d="M38.02,713.09v-.31h-.62c-.31,0-.62,0-.93.15v.31c.77,0,1.55-.31,2.32-.46h0l-.77.31Z"/>
                <path class="cls-34" d="M25.01,717.42v-.31c-.46,0-.62.31-.93.31h0c-.46.15-.77.46-1.24.62v.31c.77-.31,1.55-.77,2.17-1.08h0v.15Z"/>
                <path class="cls-34" d="M28.11,716.03v-.31c-.62.15-1.24.46-1.7.62h-.31v.31c.93-.31,1.55-.62,2.32-.93h0l-.31.31Z"/>
                <path class="cls-34" d="M31.36,714.79v-.31h0c-.15,0-.46,0-.62.15h0c-.31,0-.62.15-.93.31h-.31v.31c.77-.31,1.55-.46,2.32-.77h0l-.46.31Z"/>
              </g>
              <path class="cls-34" d="M49.8,828.36v-5.73h.31v5.73c.15,0-.31,0-.31,0ZM46.7,828.2h-.46l.15-5.73h.31v5.73ZM53.52,828.05l-.46-5.73h.31l.46,5.73h-.46.15ZM42.98,828.05h-.46l.46-5.73h.31l-.46,5.73h.15ZM57.08,827.74l-.77-5.73h.31l.77,5.58h-.31v.15ZM39.42,827.74h-.46l.77-5.73h.31l-.77,5.73h.15ZM60.64,827.12l-1.08-5.73h.31l1.08,5.58h-.31v.15ZM35.85,827.12h-.46l1.24-5.73h.31l-1.08,5.73h0ZM64.21,826.34l-1.39-5.58h.31l1.39,5.42h-.46l.15.15ZM32.29,826.19h-.46l1.55-5.73h.31l-1.39,5.73ZM67.61,825.26l-1.7-5.42h.31l1.7,5.42h-.31ZM28.88,825.26h-.31l1.86-5.58h.31l-1.86,5.58ZM71.02,824.17l-2.01-5.42h.31l2.17,5.27h-.31l-.15.15ZM25.47,824.02h-.31l2.17-5.58h.31l-2.01,5.58h-.15ZM74.43,822.78l-2.32-5.27h.31l2.32,5.11h-.31v.15ZM22.06,822.62h-.31c0-.15,2.48-5.42,2.48-5.42h.31l-2.32,5.42h-.15ZM77.68,821.23l-2.63-5.11h.31c0-.15,2.63,4.96,2.63,4.96,0,0-.31,0-.31.15ZM18.81,821.07h-.31c0-.15,2.79-5.27,2.79-5.27h.31c0,.15-2.63,5.27-2.63,5.27h-.15ZM80.78,819.37l-2.94-4.96h.31c0-.15,2.94,4.8,2.94,4.8h-.31v.15ZM15.71,819.22h-.31c0-.15,2.94-5.11,2.94-5.11h.31c0,.15-2.94,5.11-2.94,5.11h0ZM83.88,817.51l-3.25-4.8h.31c0-.15,3.25,4.49,3.25,4.49h-.31c0,.1,0,.15,0,.15v.15ZM12.61,817.2l-.31-.31,3.25-4.8h.31c0,.15-3.25,4.96-3.25,4.96h0v.15ZM86.83,815.34l-3.56-4.65h.31c0-.15,3.56,4.34,3.56,4.34l-.31.31h0ZM9.67,815.19l-.31-.31,3.56-4.49h.31c0,.15-3.56,4.8-3.56,4.8h0ZM89.61,813.17l-3.72-4.34.31-.31,3.72,4.34-.31.31ZM6.88,812.86l-.31-.31,3.87-4.34.31.31-3.72,4.34h-.15ZM92.25,810.69l-4.03-4.18.31-.31,4.03,4.18-.31.31ZM4.25,810.38l-.31-.31,4.03-4.18.31.31-4.03,4.18h0ZM94.73,808.06l-4.18-3.87.31-.31,4.18,3.87-.31.31h0ZM1.77,807.75l-.31-.31,4.18-3.87.31.31-4.18,3.87h0ZM97.21,805.43l-4.49-3.72.31-.31,4.49,3.72-.31.31h0ZM-.71,805.12l-.31-.31,4.49-3.56v.31c.15,0-4.18,3.72-4.18,3.72v-.15ZM99.38,802.48l-4.65-3.41v-.31c.15,0,4.8,3.41,4.8,3.41l-.31.31h.15ZM-2.88,802.17l-.31-.31,4.65-3.41v.31c.15,0-4.49,3.41-4.49,3.41h.15ZM101.54,799.54l-4.8-3.1v-.31c.15,0,5.11,3.1,5.11,3.1v.31h-.31ZM-4.89,799.23v-.31c-.15,0,4.65-3.1,4.65-3.1v.31c.15,0-4.65,3.1-4.65,3.1ZM103.4,796.44l-4.96-2.94v-.31c.15,0,5.27,2.79,5.27,2.79v.31h-.15l-.15.15ZM-6.75,796.13v-.31c-.15,0,4.8-2.79,4.8-2.79v.31c.15,0-4.8,2.79-4.8,2.79h0ZM105.11,793.34l-5.11-2.63v-.31c.15,0,5.27,2.48,5.27,2.48v.31h-.15v.15ZM-8.46,792.88v-.31c-.15,0,4.96-2.48,4.96-2.48v.31c.15,0-4.96,2.48-4.96,2.48ZM106.66,789.93l-5.27-2.32v-.31l5.42,2.17s0,.31-.15.31h0v.15ZM-10.01,789.62v-.31l5.11-2.17v.31l-5.11,2.17h0ZM107.9,786.68l-5.42-2.01v-.31l5.58,2.01v.31h-.15ZM-11.25,786.37v-.31l5.27-1.86v.31l-5.27,2.01h0v-.15ZM109.14,783.12l-5.58-1.7v-.31l5.58,1.55v.46ZM-12.33,782.81v-.31l5.42-1.55v.31l-5.42,1.55ZM110.07,779.71l-5.58-1.39v-.31l5.73,1.24v.46h-.15ZM-13.26,779.4v-.31l5.58-1.24v.31l-5.58,1.24ZM110.84,776.14l-5.73-.93v-.31l5.73.93v.31h0ZM-14.03,775.83v-.46l5.58-.93v.31l-5.58.93v.15ZM111.3,772.58l-5.73-.62v-.31l5.73.62v.46-.15ZM-14.5,772.27v-.46l5.73-.62v.31l-5.73.62v.15ZM111.61,769.02l-5.73-.31v-.31l5.73.31v.46-.15ZM-14.81,768.55v-.46l5.73-.31v.31l-5.73.31v.15ZM111.77,765.3h-5.73v-.46h5.73v.46h0ZM-9.23,764.99h-5.73v-.46h5.73v.46ZM105.88,761.89v-.31l5.73-.31v.46l-5.73.31h0v-.15ZM-9.08,761.74l-5.73-.31v-.46l5.73.31v.46ZM105.73,758.64v-.31l5.73-.62v.46l-5.73.62v-.15ZM-8.77,758.48l-5.73-.62v-.46l5.73.62v.31h0v.15ZM105.26,755.38v-.31l5.58-.93v.31l-5.58.93h0ZM-8.3,755.23l-5.73-.93v-.46l5.73,1.08v.31h0ZM104.49,752.13v-.31l5.58-1.39v.46s-5.58,1.24-5.58,1.24ZM-7.68,751.97l-5.58-1.24v-.31l5.73,1.39v.31l-.15-.15ZM103.71,748.88v-.31l5.42-1.7v.46l-5.42,1.55h0ZM-6.91,748.72l-5.58-1.55v-.31l5.58,1.7v.31-.15ZM102.78,745.78v-.31l5.27-2.01v.31l-5.27,1.86v.15ZM-5.82,745.62l-5.42-1.86v-.31l5.58,2.01v.31l-.15-.15ZM101.54,742.68v-.31l5.11-2.32s0,.31.15.31l-5.27,2.17v.15ZM-4.74,742.52l-5.27-2.17v-.31c.15,0,5.42,2.32,5.42,2.32v.31h0l-.15-.15ZM100.15,739.73v-.31c-.15,0,4.96-2.63,4.96-2.63,0,0,0,.31.15.31l-5.11,2.48v.15ZM-3.34,739.58l-5.11-2.48v-.31c.15,0,5.27,2.63,5.27,2.63v.31l-.15-.15ZM98.76,736.79v-.31c-.15,0,4.8-2.79,4.8-2.79,0,0,0,.31.15.31l-5.11,2.79h.15ZM-1.8,736.64l-4.96-2.79v-.31c.15,0,5.27,2.94,5.27,2.94v.31l-.31-.15ZM97.05,734v-.31c-.15,0,4.65-3.1,4.65-3.1v.31c.15,0-4.65,3.1-4.65,3.1h0ZM-.09,733.85l-4.8-3.1v-.31c.15,0,5.11,3.1,5.11,3.1v.31H-.09ZM95.19,731.37v-.31c-.15,0,4.49-3.41,4.49-3.41l.31.31-4.65,3.41h-.15ZM1.77,731.06l-4.65-3.41.31-.31,4.65,3.41v.31h-.31ZM93.18,728.73l-.31-.31,4.49-3.72.31.31-4.49,3.56h0v.15ZM3.78,728.58l-4.49-3.72.31-.31,4.49,3.72-.31.31h0ZM91.01,726.26l-.31-.31,4.18-3.87.31.31-4.34,3.87h.15ZM5.95,726.1l-4.18-3.87.31-.31,4.18,3.87-.31.31ZM88.68,723.78l-.31-.31,4.03-4.18.31.31-4.03,4.18ZM8.28,723.62l-4.03-4.18.31-.31,4.03,4.18-.31.31h0ZM86.36,721.61l-.31-.31,3.72-4.34.31.31-3.72,4.34ZM10.6,721.45l-3.72-4.34.31-.31,3.72,4.34-.31.31ZM83.73,719.44h-.31c0-.15,3.56-4.8,3.56-4.8l.31.31-3.56,4.49h0ZM13.23,719.44l-3.56-4.49.31-.31,3.56,4.65h-.31v.15ZM81.09,717.58h-.31c0-.15,3.25-4.96,3.25-4.96h.31c0,.15-3.25,4.96-3.25,4.96ZM15.87,717.42l-3.25-4.8s.15-.15.31-.31l3.25,4.8h-.31v.31ZM78.3,715.72h-.31c0-.15,2.94-5.11,2.94-5.11,0,0,.31,0,.31.15l-3.1,4.96h.15ZM18.66,715.72l-2.94-4.96h.31c0-.15,2.94,4.8,2.94,4.8h-.31v.15ZM75.52,714.17h-.31c0-.15,2.63-5.27,2.63-5.27h.31c0,.15-2.79,5.27-2.79,5.27h.15ZM21.44,714.02l-2.63-5.11h.31c0-.15,2.63,4.96,2.63,4.96l-.31.15ZM72.57,712.62h-.31c0-.15,2.32-5.42,2.32-5.42h.31c0,.15-2.48,5.42-2.48,5.42h.15ZM24.39,712.62l-2.48-5.27s.31,0,.31-.15l2.32,5.27h-.31l.15.15ZM69.63,711.38h-.31l2.01-5.58h.31l-2.17,5.58h.15ZM27.49,711.23l-2.17-5.42h.31l2.01,5.27h-.31l.15.15ZM66.53,710.3h-.31l1.7-5.58h.46l-1.86,5.58ZM30.59,710.14l-1.86-5.42h.46l1.7,5.42h-.31,0ZM63.28,709.37h-.31l1.39-5.73h.46l-1.55,5.73h0ZM33.68,709.21l-1.55-5.58h.46l1.39,5.42h-.31v.15ZM60.18,708.59h-.31l1.08-5.73h.31l-1.08,5.73ZM36.94,708.44l-1.08-5.58h.46l1.08,5.58h-.46ZM56.92,707.97h-.31l.77-5.73h.46l-.77,5.73h-.15ZM40.19,707.97l-.77-5.73h.46l.77,5.73h-.46ZM53.67,707.51h-.31l.46-5.73h.46l-.46,5.73h-.15ZM43.44,707.51l-.46-5.73h.46l.46,5.73h-.46ZM50.26,707.35h-.31v-5.73h.46l-.15,5.73ZM46.7,707.35v-5.73c-.15,0,.15,0,.15,0v5.73h-.15Z"/>
            </g>
            <circle class="cls-33" cx="48.25" cy="765.76" r="33.78"/>
          </g>
        </g>
      </g>
    </g>
  </g>
</svg>