<?xml version="1.0" encoding="UTF-8"?>
<svg id="Career" xmlns="http://www.w3.org/2000/svg" xmlns:xlink="http://www.w3.org/1999/xlink" viewBox="0 0 457.83 157.12">
  <defs>
    <linearGradient id="linear-gradient" x1="273.86" y1="119.17" x2="274.26" y2="74.3" gradientUnits="userSpaceOnUse">
      <stop offset="0" stop-color="#759bd4"/>
      <stop offset="1" stop-color="#404aa9"/>
    </linearGradient>
    <linearGradient id="linear-gradient-2" x1="288.73" y1="73.66" x2="288.73" y2="163.93" xlink:href="#linear-gradient"/>
  </defs>
  <path d="M253.31,123.76c1.18.12-1.05,17.33-6.34,16.16-5.29-1.17.03-16.8,6.34-16.16Z" fill="#2f3e93" stroke-width="0"/>
  <g>
    <path d="M267.71,134.46c-.14,0-.28-.03-.41-.08-1.61-.66-4.87-2.39-5.75-3.67-.32-.14-1.35-.21-2.2-.13-.59.05-1.12-.38-1.17-.98-.05-.59.38-1.12.97-1.17,1.26-.11,3.48-.13,4.18,1.08.32.48,2.64,1.99,4.78,2.88.55.23.81.86.58,1.41-.17.42-.57.67-1,.67Z" fill="#ea6363" stroke-width="0"/>
    <path d="M273.91,136.69l-.89-.56c-.3-.19-.59-.35-.9-.59l-.92-.67c-.31-.22-.58-.46-.87-.69-.29-.23-.57-.47-.84-.72-.27-.25-.56-.49-.82-.76-.26-.27-.53-.52-.79-.81-.13-.14-.26-.28-.38-.43-.13-.16-.25-.28-.4-.49l1.15.68-6.33-1.07c-.69-.12-1.15-.77-1.03-1.45.11-.64.68-1.08,1.31-1.05l6.41.36h.02c.48.03.9.3,1.13.68.05.09.16.23.24.35.09.12.19.25.29.38.19.26.41.5.61.75.2.25.44.49.66.73.22.25.45.48.69.7.24.22.47.47.72.68l.73.63c.23.21.53.42.81.63l.84.63c.56.42.67,1.21.25,1.76-.39.53-1.12.65-1.67.31Z" fill="#ea6363" stroke-width="0"/>
    <path d="M278.68,136.29s-.23-.1-.65-.28c-.23-.12-.52-.28-.85-.47-.36-.2-.63-.38-.98-.6-.68-.43-1.45-.94-2.25-1.51-.81-.56-1.65-1.19-2.51-1.87-.21-.16-.45-.38-.67-.57l-.17-.15-.02-.02h-.01c.07.05-.16-.16.15.13h0s-.04-.03-.04-.03l-.08-.06-.15-.11s0,.03,0,.04c.11.08-.15-.03-.28-.06-.19-.04-.35-.09-.56-.11-.79-.14-1.64-.2-2.35-.23-.72-.03-1.33-.04-1.75-.03-.41,0-.65.01-.65.01h-.06c-1.19.02-2.17-.93-2.19-2.12-.02-1.19.93-2.17,2.12-2.19.07,0,.14,0,.2,0,0,0,.28.02.76.06.47.04,1.14.11,1.95.22.81.12,1.76.27,2.84.56.26.07.56.17.85.27.33.14.55.19,1.1.52.11.07.24.15.33.22l.14.12.29.27.11.11c.16.16.28.3.46.47.7.66,1.46,1.32,2.18,1.91.72.6,1.41,1.15,1.99,1.58.29.21.59.45.77.56.21.14.38.27.53.37.4.21.62.33.62.33l.06.03c.7.37.96,1.24.59,1.94-.36.66-1.16.93-1.84.64Z" fill="#ea6363" stroke-width="0"/>
    <path d="M279.96,131.52l-2.4-.61-.6-.15c-.2-.06-.39-.09-.6-.17l-1.24-.45c-.82-.31-1.69-.58-2.46-.94-.79-.35-1.57-.67-2.37-1.08l1.13.21c-.99.21-1.95.39-2.93.56-.97.17-1.96.32-2.95.46-1,.11-1.99.25-3.02.31-.52.03-1.01.09-1.56.08h-1.62c-1.49,0-2.71-1.21-2.71-2.7,0-1.49,1.21-2.71,2.7-2.71.14,0,.27,0,.4.03l.19.03,1.27.2c.42.08.89.09,1.33.14.89.1,1.83.11,2.76.15.93.01,1.87.02,2.82,0,.94-.01,1.9-.05,2.81-.1h.14c.36-.05.7.04.99.21.64.39,1.36.75,2.05,1.12.7.4,1.4.66,2.1.99l1.05.48c.17.09.38.14.57.21l.59.2,2.35.78h.01c.75.26,1.16,1.07.91,1.82-.24.72-1,1.12-1.72.94Z" fill="#ff9491" stroke-width="0"/>
    <path d="M265.41,139.54s-.89-.4-2.23-1c-.67-.26-1.43-.61-2.26-.89-.41-.15-.84-.3-1.27-.46-.44-.13-.88-.26-1.32-.39-.44-.13-.88-.27-1.31-.35-.43-.09-.85-.18-1.26-.27-.41-.11-.79-.1-1.15-.15-.36-.04-.7-.08-1.02-.11-.31-.03-.57.02-.81.01-.24,0-.44.02-.61.02-.34,0-.53.01-.53.01h-.42c-1.8.05-3.28-1.38-3.32-3.17-.04-1.8,1.39-3.28,3.18-3.32.17,0,.36,0,.53.03,0,0,.3.04.82.12.26.04.58.09.94.14.35.07.78.1,1.19.22.41.12.85.25,1.31.39.45.15.97.26,1.43.47.47.2.95.4,1.45.6.5.19.97.44,1.44.68.47.24.94.48,1.4.72.44.26.88.51,1.3.76.85.48,1.58.99,2.24,1.4,1.23.85,2.06,1.42,2.06,1.42.82.56,1.03,1.69.46,2.51-.5.73-1.44.97-2.22.62Z" fill="#ff9491" stroke-width="0"/>
    <path d="M264.19,125.82c-.24-.15-3.81-1.86-4.64-1.86-.83,0-8.19.87-9.47.83-1.28-.04-5.61-.2-6.56-.2-.95,0-.03,8.62,1.02,8.86,1.05.23,2.49,1.69,3.09,1.92,2.64,1.03,5.28.5,5.28.5l11.29-10.05Z" fill="#ff9491" stroke-width="0"/>
  </g>
  <path d="M192.59,139.6l54.39.33c-1-3.57-.97-14,6.34-16.16l-52.9-7.2s-12.04-28.2-14.06-31.91l-17.6-9.7c-5.2,2.98,11.91,43.67,18.43,60.89.85,2.25,3,3.74,5.4,3.75Z" fill="#404aa9" stroke-width="0"/>
  <path d="M187.38,86.76s0,0,0-.01l-18.41-1.53c3.45,13.94,13.55,38.3,18.22,50.63.85,2.25,3,3.74,5.4,3.75,0,0,1.12-38.59-5.21-52.84Z" fill="#2f3e93" stroke-width="0"/>
  <path d="M184.17,156.8c3.2-16.28,12.95-61.78-1.04-76.93-6.73-7.29-20.55-11.55-20.55-11.55l-20.64-2.45s-21.86,7.36-27.79,12.26c-5.93,4.9-21.03,29.61-21.03,29.61l32.59,4.08c1.74,8.05-.67,27.14-3.7,44.98h62.14Z" fill="#404aa9" stroke-width="0"/>
  <polygon points="159.95 60.35 162.66 61.35 165.37 65.87 159.32 66.19 159.95 60.35" fill="#404aa9" stroke-width="0"/>
  <path d="M138.03,65.87s19.06-5.55,28.38,0l4.88,20.7,5.13,37.24v21.36h-24.76s1.76-16.97-1.09-29.98c-1.32-6.03-12.53-49.32-12.53-49.32Z" fill="#fff" stroke-width="0"/>
  <path d="M147.09,37.64s-1.33,15.19-8.54,25.44c0,10.28,19.7,15.49,23.74,9.03.92-1.47.49-3.01.3-3.79-1.95-5.49-1.95-13.23-1.95-13.23l-13.54-17.45Z" fill="#ff9491" stroke-width="0"/>
  <path d="M160.63,55.09l-13.54-17.45s-.24,2.74-1.07,6.68h0c.25,4.33,1.7,18,15.84,21.54-1.23-5.08-1.23-10.77-1.23-10.77Z" fill="#ea6363" stroke-width="0"/>
  <path d="M152.26,104.93c-3.4-15.89-12.38-37.12-9.13-50.7-8.85,8.01-11.8,27.96-11.8,27.96l11.14,5.13-4.43,5.25s12.82,30.97,14.06,47c.5-4.25.94-8.09,1.31-11.38.88-7.77.49-15.61-1.15-23.26Z" fill="#759bd4" stroke-width="0"/>
  <path d="M161.06,61.3l-.18-1.69c5.84,1.59,21.2,20.48,21.2,20.48l-7.95,9.34,6.23,2.9s-3.34,38.35.69,54.52c-12.8-15.62-11.52-78.23-19.99-85.56Z" fill="#759bd4" stroke-width="0"/>
  <path d="M168.36,57.88c4.46-1.5,22.46-53.06-12.17-52.27-32.53.74-9.97,59.72,12.17,52.27Z" fill="#ff9491" stroke-width="0"/>
  <path d="M176.62,34.34c.58-4.92.56-9.97-.52-14.43l-18.25,6.09c4.17,5.22,9.77,8.58,18.77,8.35Z" fill="#ea6363" stroke-width="0"/>
  <path d="M140.74,31.88s-12.41-17.99-.39-24.96c4.23-2.45,8.49,1.87,8.49,1.87,0,0,1.98-9.84,10.91-8.71,14.6,1.84,21.39,24.18,30.29,22.1-4.43,12.83-23.13,4.16-23.13,4.16l-.42,3s-9.06.99-11.93-9.48c-1.61,9.37-7.44,16.81-7.44,16.81l-6.38-4.81Z" fill="#002951" stroke-width="0"/>
  <circle cx="143.75" cy="36.2" r="5.26" transform="translate(30.18 131.48) rotate(-54.13)" fill="#ff9491" stroke-width="0"/>
  <path d="M146.15,35.67c-.29-1.33-1.61-2.17-2.93-1.87-1.33.29-2.17,1.61-1.87,2.93s1.61,2.17,2.93,1.87c1.33-.29,2.17-1.61,1.87-2.93Z" fill="#ea6363" stroke-width="0"/>
  <path d="M148.89,12.15s-.1,0-.14-.01c-.41-.08-.67-.47-.59-.88.75-3.89-1.45-6.15-3.44-7.36-.35-.22-.47-.68-.25-1.03.22-.35.68-.47,1.03-.25,3.38,2.06,4.85,5.23,4.13,8.92-.07.36-.38.61-.74.61Z" fill="#002951" stroke-width="0"/>
  <path d="M162.34,129.69c2.44.32,5.5,10.12,1.87,15.56h-14.5s4.12-16.69,12.62-15.56Z" fill="#2f3e93" stroke-width="0"/>
  <polygon points="266.34 74.11 266.34 118.71 281.79 118.71 266.34 74.11" fill="url(#linear-gradient)" stroke-width="0"/>
  <path d="M156.19,141.36c-5.32-1.46-11.41,1.48-15.47,2.37-4.06.9-6.37-9.22-6.37-9.22l24.32-2.94-2.48,9.78Z" fill="#ea6363" stroke-width="0"/>
  <path d="M131.95,102.68l-18.6-3.32s.95,4.89,2.4,11.21l9.97,1.25c1.12,5.18.52,14.92-.85,25.97,1.13,1.12,9.25-14.93,7.08-35.11Z" fill="#2f3e93" stroke-width="0"/>
  <path d="M249.91,106.29c0-.8-.65-1.45-1.45-1.45s-1.45.65-1.45,1.45.65,1.45,1.45,1.45,1.45-.65,1.45-1.45Z" fill="#404aa9" stroke-width="0"/>
  <g>
    <path d="M171.76,143.07s-.04-.02-.11-.06c-.07-.04-.19-.11-.29-.15-.19-.09-.57-.27-1.02-.45-.9-.37-2.16-.79-3.4-1.09-.62-.15-1.24-.26-1.8-.31-.56-.06-1.06-.08-1.44-.04-.2,0-.36.03-.5.06-.14.02-.26.04-.33.08-.16.05-.25.08-.25.08l-.12.04c-1.25.39-2.58-.31-2.97-1.56-.39-1.25.31-2.58,1.56-2.97.14-.04.29-.07.43-.09,0,0,.25-.03.7-.08.23-.03.48-.03.76-.02.29,0,.6.01.92.06.66.06,1.36.23,2.09.43.72.21,1.44.47,2.14.77,1.4.59,2.69,1.29,3.64,1.89.48.3.85.55,1.18.78.17.11.23.18.3.23.06.05.1.08.1.08.61.49.71,1.38.22,1.99-.44.55-1.2.68-1.8.35h-.01Z" fill="#ea6363" stroke-width="0"/>
    <path d="M162.53,136.92c-4.82.36-4.78,4.01-11.08,1.55,1.21.58,3.76,2.61,5.31,3.12,1.76.58,6.85-.57,6.85-.57l-1.08-4.1Z" fill="#ea6363" stroke-width="0"/>
    <path d="M160.94,145.15c-2.47-4.28,3.78-10.64,12.53-10.64,6.35,0,13.03,5.01,15.08,10.64h-27.61Z" fill="#759bd4" stroke-width="0"/>
    <path d="M184.48,143.91c-.42,0-.82-.26-.98-.68-.02-.04-.81-2.07-3.22-3.47-.5-.29-.67-.93-.38-1.42.29-.5.92-.67,1.42-.38,3.11,1.8,4.09,4.44,4.13,4.55.2.54-.08,1.14-.62,1.33-.12.04-.24.06-.36.06Z" fill="#404aa9" stroke-width="0"/>
    <path d="M183.44,136.8s-.07-.01-.22-.04c-.16-.04-.31-.05-.65-.12-.33-.07-.71-.16-1.1-.29-.4-.13-.85-.28-1.32-.47-.94-.39-1.97-.96-2.98-1.54-.24-.13-.49-.27-.74-.4-.22-.11-.48-.24-.54-.23h-.02s0,0,0,0c.25.08.07.02.12.04h0s-.01,0-.01,0l-.11-.02s.09.04.06.04l-.32.03-.81.1c-1.13.16-2.32.4-3.42.64-1.1.26-2.13.51-3.01.72-.88.24-1.61.45-2.12.59-.5.15-.79.24-.79.24-1.51.46-3.11-.38-3.57-1.89s.38-3.11,1.89-3.57c.26-.08.53-.12.79-.13h.03s1.25-.02,3.11-.04c.93-.02,2.02-.05,3.18-.08,1.17-.03,2.41-.05,3.7-.04.32,0,.66.01,1.01.03.18.01.37.03.59.05.12.01.36.05.51.09l.11.03.16.05.04.02.09.04c.49.22.74.42,1.03.61.25.18.49.36.73.54.9.67,1.71,1.18,2.45,1.52.37.17.7.32,1.01.4.32.1.57.15.76.19.18.05.45.07.57.08.14.02.22.02.22.02.78.08,1.34.78,1.25,1.56-.08.78-.78,1.34-1.56,1.25-.03,0-.07,0-.11-.02Z" fill="#ff9491" stroke-width="0"/>
    <path d="M157.22,134.23c-.65,0-1.24-.45-1.38-1.11-.17-.76.32-1.52,1.08-1.68,3.79-.82,14.8-3.76,14.91-3.79.26-.07.53-.06.78.02,1.56.48,11.09.88,12.27.62.74-.26,1.51.14,1.77.88.26.74-.16,1.55-.9,1.81-1.47.52-10.84.04-13.54-.5-1.93.51-11.18,2.96-14.7,3.73-.1.02-.2.03-.3.03Z" fill="#ff9491" stroke-width="0"/>
    <path d="M177.67,142.02l-.24-.02-.4-.07c-.24-.06-.44-.12-.64-.19-.4-.15-.76-.33-1.09-.52-.66-.39-1.22-.84-1.75-1.3-.52-.47-1-.95-1.46-1.46-.23-.25-.45-.51-.66-.77-.22-.27-.42-.51-.65-.82h0s.59.53.59.53l-6.71-3.3h0s1.3.17,1.3.17l-5.79,1.8c-1.25.39-2.57-.31-2.96-1.55-.39-1.25.31-2.57,1.55-2.96.11-.04.24-.06.36-.08l6-.89.29-.04c.37-.05.72.03,1.01.22h0s6.49,3.72,6.49,3.72l.14.08c.19.11.34.27.45.45h0c.13.21.31.46.48.69.17.24.35.47.53.69.36.45.74.89,1.14,1.29.39.4.8.75,1.21,1.04.2.14.4.25.59.34.09.04.19.08.26.1l.07.03.23.04c.77.12,1.3.84,1.18,1.61-.11.74-.79,1.26-1.53,1.19Z" fill="#ff9491" stroke-width="0"/>
    <path d="M172.44,144.95l-.43-.24c-.13-.06-.32-.19-.49-.31-.37-.24-.64-.47-.94-.7-.56-.49-1.08-1-1.55-1.55-.47-.55-.9-1.11-1.3-1.7-.2-.29-.39-.59-.58-.89l-.27-.46-.27-.5h0s.6.68.6.68l-6.52-3.93c-.89-.54-1.18-1.7-.64-2.59.54-.89,1.7-1.18,2.59-.64.03.02.07.04.1.06l6.26,4.33.09.07c.23.16.4.38.5.62h0l.17.37.2.39c.14.26.29.52.44.78.31.51.64,1.01.99,1.47.36.46.74.89,1.14,1.29.2.18.42.38.6.51.1.07.16.14.32.24l.41.26c.66.42.86,1.29.45,1.95-.4.64-1.23.84-1.88.49Z" fill="#ff9491" stroke-width="0"/>
    <path d="M151.44,138.46c8.42,3.6,9.07-.8,14.11-.17l-4.43-7.1s-3.46.98-7.74,0c-3.65-.83-2.35,7.13-2.35,7.13.11.02.25.08.42.15,0,0,0,0-.01,0Z" fill="#ff9491" stroke-width="0"/>
  </g>
  <path d="M80.8,145.4h71.15c-1-3.57,3.08-13.54,10.4-15.71l-45.56-5.08,16.99-24.59-21.2-20.39c-5.63,3.23-36.71,51.75-31.78,65.77Z" fill="#404aa9" stroke-width="0"/>
  <path d="M116.53,121.81s5.56-1.25,4.12,4.19c-1.44,5.44-7.31.96-7.31.96l3.19-5.15Z" fill="#404aa9" stroke-width="0"/>
  <g id="Books">
    <path d="M102.31,127.92H37.18c-1.97,0-3.56,1.59-3.56,3.56v.07c0,1.97,1.59,3.56,3.56,3.56h65.13v-7.19Z" fill="#fff" stroke-width="0"/>
    <path d="M104.64,136.07H37.18c-2.49,0-4.52-2.03-4.52-4.52v-.07c0-2.49,2.03-4.52,4.52-4.52h67.46c.53,0,.96.43.96.96s-.43.96-.96.96H37.18c-1.43,0-2.59,1.16-2.59,2.6v.07c0,1.43,1.16,2.6,2.59,2.6h67.46c.53,0,.96.43.96.96s-.43.96-.96.96Z" fill="#ed5c61" stroke-width="0"/>
    <path d="M112.58,137.01H47.45c-1.97,0-3.56,1.59-3.56,3.56v.07c0,1.97,1.59,3.56,3.56,3.56h65.13v-7.19Z" fill="#fff" stroke-width="0"/>
    <path d="M114.91,145.17H47.45c-2.49,0-4.52-2.03-4.52-4.52v-.07c0-2.49,2.03-4.52,4.52-4.52h67.46c.53,0,.96.43.96.96s-.43.96-.96.96H47.45c-1.43,0-2.59,1.16-2.59,2.59v.07c0,1.43,1.16,2.6,2.59,2.6h67.46c.53,0,.96.43.96.96s-.43.96-.96.96Z" fill="#fab620" stroke-width="0"/>
  </g>
  <g>
    <rect x="361.07" y="77.57" width="26.3" height="67.53" fill="#db4954" stroke-width="0"/>
    <rect x="387.37" y="77.57" width="22.96" height="67.53" fill="#ed5c61" stroke-width="0"/>
    <rect x="390.59" y="83.9" width="16.28" height="23.9" fill="#fff" stroke-width="0"/>
    <rect x="392.38" y="86.52" width="12.21" height="4.78" fill="#ffe3bb" stroke-width="0"/>
    <path d="M404.28,127.77c0-3-2.43-5.43-5.43-5.43s-5.43,2.43-5.43,5.43,2.43,5.43,5.43,5.43,5.43-2.43,5.43-5.43Z" fill="#eefeff" stroke-width="0"/>
    <rect x="360.54" y="77.57" width="22.96" height="67.53" fill="#759bd4" stroke-width="0"/>
    <rect x="363.77" y="83.9" width="16.28" height="23.9" fill="#fff" stroke-width="0"/>
    <rect x="365.55" y="86.52" width="12.21" height="4.78" fill="#ffe3bb" stroke-width="0"/>
    <path d="M377.45,127.77c0-3-2.43-5.43-5.43-5.43s-5.43,2.43-5.43,5.43,2.43,5.43,5.43,5.43,5.43-2.43,5.43-5.43Z" fill="#eefeff" stroke-width="0"/>
    <path d="M372.02,123.86c2.74,0,5,2.03,5.37,4.67.04-.25.06-.5.06-.76,0-3-2.43-5.43-5.43-5.43s-5.43,2.43-5.43,5.43c0,.26.02.51.06.76.37-2.64,2.63-4.67,5.37-4.67Z" fill="#404aa9" stroke-width="0"/>
    <path d="M398.85,123.86c2.74,0,5,2.03,5.37,4.67.04-.25.06-.5.06-.76,0-3-2.43-5.43-5.43-5.43s-5.43,2.43-5.43,5.43c0,.26.02.51.06.76.37-2.64,2.63-4.67,5.37-4.67Z" fill="#404aa9" stroke-width="0"/>
    <rect x="334.25" y="77.57" width="26.3" height="67.53" fill="#6089c4" stroke-width="0"/>
  </g>
  <rect x="129.07" y="145.17" width="293.04" height="11.63" fill="#edf2f6" stroke-width="0"/>
  <rect x="187.37" y="141.82" width="117.97" height="3.34" fill="#404aa9" stroke-width="0"/>
  <rect x="203.3" y="141.82" width="117.97" height="3.34" fill="#759bd4" stroke-width="0"/>
  <polygon points="325.4 145.16 252.48 156.8 422.11 156.8 422.11 145.16 325.4 145.16" fill="#c5deea" stroke-width="0"/>
  <path d="M218.52,28.61h111.1c2.48,0,4.5,2.02,4.5,4.5v81.1c0,2.48-2.02,4.5-4.5,4.5h-111.1c-2.48,0-4.5-2.02-4.5-4.5V33.11c0-2.48,2.02-4.5,4.5-4.5Z" fill="#404aa9" stroke-width="0"/>
  <path d="M221.74,28.61h111.1c2.48,0,4.5,2.02,4.5,4.5v81.1c0,2.48-2.02,4.5-4.5,4.5h-111.1c-2.48,0-4.5-2.02-4.5-4.5V33.11c0-2.48,2.02-4.5,4.5-4.5Z" fill="#759bd4" stroke-width="0"/>
  <rect x="263.62" y="70.54" width="36.34" height="3.57" rx="1.77" ry="1.77" fill="#404aa9" stroke-width="0"/>
  <path d="M240.96,106.29c0-.8-.65-1.45-1.45-1.45s-1.45.65-1.45,1.45.65,1.45,1.45,1.45,1.45-.65,1.45-1.45Z" fill="#404aa9" stroke-width="0"/>
  <path d="M245.54,106.29c0-.8-.65-1.45-1.45-1.45s-1.45.65-1.45,1.45.65,1.45,1.45,1.45,1.45-.65,1.45-1.45Z" fill="#404aa9" stroke-width="0"/>
  <circle cx="310.93" cy="106.29" r="1.45" fill="#404aa9" stroke-width="0"/>
  <circle cx="315.51" cy="106.29" r="1.45" fill="#404aa9" stroke-width="0"/>
  <path d="M300.43,145.16h-28.81s8.28-4.23,9.27-7.62l-14.03-66.31s28.2.13,28.81,0c.6-.14,1.21.25,1.34.86l13.35,60.73c.66,3.02-.07,6.14-2.01,8.55-1.94,2.41-4.83,3.79-7.92,3.79Z" fill="url(#linear-gradient-2)" stroke-width="0"/>
  <path d="M271.62,145.16h-23.8c-.62,0-1.13-.5-1.13-1.13s.5-1.13,1.13-1.13h23.8c2.41,0,4.66-1.08,6.17-2.95,1.51-1.88,2.08-4.3,1.56-6.66l-13.35-60.73c-.13-.61.25-1.21.86-1.34.6-.14,1.21.25,1.34.86l13.35,60.73c.66,3.02-.07,6.14-2.01,8.55-1.94,2.41-4.83,3.79-7.92,3.79Z" fill="#404aa9" stroke-width="0"/>
  <path d="M198.53,116.19c1.69-.06,4.5-2.12,6.06,1.25,1.56,3.38-6.06-1.25-6.06-1.25Z" fill="#404aa9" stroke-width="0"/>
  <rect y="145.17" width="129.07" height="11.63" fill="#759bd4" stroke-width="0"/>
  <path d="M457.08,157.12h-175.29c-.41,0-.75-.34-.75-.75s.34-.75.75-.75h175.29c.41,0,.75.34.75.75s-.34.75-.75.75Z" fill="#c5deea" stroke-width="0"/>
</svg>