<?xml version="1.0" encoding="UTF-8"?>
<svg id="Layer_1" data-name="Layer 1" xmlns="http://www.w3.org/2000/svg" xmlns:xlink="http://www.w3.org/1999/xlink" viewBox="0 0 134.28 34">
  <defs>
    <style>
      .cls-1 {
        fill: url(#linear-gradient-2);
      }

      .cls-2 {
        fill: #ef5a29;
        font-family: RedHatDisplay-Black, 'Red Hat Display';
        font-size: 16.26px;
        font-weight: 800;
      }

      .cls-3 {
        opacity: .8;
      }

      .cls-3, .cls-4 {
        fill: #f18f23;
      }

      .cls-3, .cls-5 {
        isolation: isolate;
      }

      .cls-6 {
        fill: url(#radial-gradient);
      }

      .cls-5 {
        fill: none;
        opacity: .5;
        stroke: #f18f23;
        stroke-miterlimit: 10;
        stroke-width: .22px;
      }

      .cls-7 {
        fill: url(#linear-gradient-3);
      }

      .cls-8 {
        fill: url(#linear-gradient);
      }

      .cls-9 {
        fill: url(#linear-gradient-4);
      }
    </style>
    <linearGradient id="linear-gradient" x1="-28.93" y1="125.37" x2="-3.2" y2="93.12" gradientTransform="translate(30.24 121.88) rotate(1.11) scale(1 -1)" gradientUnits="userSpaceOnUse">
      <stop offset=".27" stop-color="#b82428"/>
      <stop offset=".32" stop-color="#bb2729"/>
      <stop offset=".41" stop-color="#c74127"/>
      <stop offset=".53" stop-color="#d76c27"/>
      <stop offset=".68" stop-color="#eda822"/>
      <stop offset=".72" stop-color="#f9bd2d"/>
    </linearGradient>
    <linearGradient id="linear-gradient-2" x1="-32.7" y1="117.44" x2="-1.86" y2="93.1" gradientTransform="translate(31.6 121.95) rotate(1.12) scale(1 -1)" gradientUnits="userSpaceOnUse">
      <stop offset=".04" stop-color="#f4db07"/>
      <stop offset=".16" stop-color="#f1ac1d"/>
      <stop offset=".39" stop-color="#e06f26"/>
      <stop offset="1" stop-color="#d02029"/>
    </linearGradient>
    <radialGradient id="radial-gradient" cx="-33.43" cy="-2591.04" fx="-33.43" fy="-2591.04" r="10.37" gradientTransform="translate(-2.88 2650.2) rotate(1.1) scale(1.03 1.02) skewX(-.04)" gradientUnits="userSpaceOnUse">
      <stop offset=".66" stop-color="#fff" stop-opacity=".5"/>
      <stop offset="1" stop-color="#fff" stop-opacity="0"/>
    </radialGradient>
    <linearGradient id="linear-gradient-3" x1="-10.26" y1="-2561.55" x2="-10.26" y2="-2576.51" gradientTransform="translate(-16.45 2593.6) rotate(1.12)" gradientUnits="userSpaceOnUse">
      <stop offset=".51" stop-color="#fff" stop-opacity=".5"/>
      <stop offset="1" stop-color="#fff" stop-opacity="0"/>
    </linearGradient>
    <linearGradient id="linear-gradient-4" x1="-19.26" y1="124.7" x2="-19.26" y2="99.41" gradientTransform="translate(31.6 121.95) rotate(1.12) scale(1 -1)" xlink:href="#linear-gradient-3"/>
  </defs>
  <g>
    <g>
      <g>
        <path class="cls-8" d="m32.26,10.25c-.35-.97-.82-1.91-1.39-2.77-.58-.87-1.26-1.66-2.02-2.37-1.53-1.41-3.35-2.5-5.3-3.19-.97-.35-1.98-.58-3-.72-1.01-.14-2.04-.18-3.04-.11-2.01.13-3.98.66-5.73,1.53-1.75.87-3.29,2.08-4.51,3.49-.61.71-1.15,1.47-1.61,2.26-.46.79-.83,1.63-1.12,2.48-.29.85-.49,1.73-.62,2.6-.12.88-.15,1.76-.11,2.63.09,1.74.51,3.45,1.22,5.02.71,1.57,1.72,2.99,2.94,4.2,1.23,1.2,2.67,2.19,4.26,2.9,1.58.72,3.31,1.17,5.09,1.31,1.78.15,3.62-.02,5.4-.53,1.78-.51,3.5-1.37,5.01-2.56,1.5-1.19,2.8-2.7,3.72-4.44.93-1.74,1.49-3.7,1.62-5.7.13-2-.11-4.07-.81-6.02Zm-2.14,6.33c-.13,6.79-5.86,12.18-12.79,12.05-6.93-.13-12.43-5.74-12.3-12.53.13-6.79,5.86-12.18,12.79-12.05,6.93.13,12.43,5.74,12.3,12.53Z"/>
        <path class="cls-1" d="m33.39,22.61c-.73,2.06-1.87,4.01-3.38,5.69-.75.84-1.59,1.61-2.51,2.3-.23.17-.47.34-.7.5-.24.15-.48.32-.73.46-.25.14-.5.29-.76.42-.26.13-.52.27-.78.39-2.11.98-4.46,1.51-6.82,1.54h-.88c-.29-.03-.59-.04-.88-.07-.29-.03-.59-.07-.88-.11-.29-.04-.58-.1-.88-.15-.29-.05-.58-.13-.87-.2-.29-.07-.57-.16-.85-.24-.28-.08-.56-.19-.84-.28-.14-.05-.28-.1-.41-.16l-.41-.17c-1.09-.46-2.12-1.04-3.09-1.7-.96-.67-1.86-1.43-2.67-2.27-.8-.84-1.52-1.77-2.13-2.74-.61-.98-1.12-2.02-1.52-3.1-.4-1.08-.67-2.19-.84-3.31-.16-1.12-.21-2.26-.14-3.37.15-2.24.74-4.43,1.73-6.4.99-1.97,2.37-3.71,4.01-5.13.82-.71,1.7-1.33,2.63-1.87.24-.13.47-.26.71-.38.24-.12.48-.24.72-.35.25-.11.49-.22.74-.32.25-.09.5-.19.75-.28.25-.08.5-.17.76-.24.26-.07.51-.15.77-.2.26-.06.52-.12.78-.17.26-.04.52-.1.78-.13.26-.03.52-.07.79-.09.26-.02.52-.04.79-.06l.79-.02h.79c1.05.06,2.08.2,3.1.43,1.01.23,2,.57,2.95.98,1.89.83,3.63,1.98,5.14,3.38,1.51,1.41,2.8,3.08,3.71,4.96.46.94.82,1.94,1.09,2.96.26,1.03.41,2.08.45,3.15.08,2.13-.24,4.3-.97,6.36Zm-1.32-9.16c-.12-.93-.33-1.85-.63-2.75-.6-1.8-1.59-3.51-2.92-4.94-1.33-1.43-3-2.56-4.84-3.28-1.84-.71-3.81-1.05-5.76-.99l-.73.04c-.24.02-.48.05-.73.08-.24.03-.48.08-.72.12-.24.04-.47.1-.71.15-.24.05-.47.12-.7.18-.23.06-.46.15-.69.22-.23.08-.45.17-.67.25-.22.09-.44.19-.66.29-.22.1-.43.21-.64.32-.21.11-.42.23-.62.35-.2.12-.4.25-.6.38-.2.13-.39.27-.58.41-.76.56-1.45,1.19-2.07,1.88-1.24,1.38-2.18,2.99-2.76,4.69-.59,1.7-.81,3.48-.7,5.22.05.87.19,1.73.41,2.56.21.83.51,1.64.88,2.4.36.77.81,1.5,1.31,2.18.5.68,1.06,1.31,1.68,1.89.61.58,1.28,1.09,1.99,1.54.71.45,1.46.83,2.23,1.14,1.55.63,3.21.96,4.9,1.02,1.69.06,3.39-.17,5.02-.69,1.63-.52,3.2-1.35,4.58-2.46,1.37-1.12,2.55-2.52,3.39-4.13.84-1.61,1.34-3.41,1.45-5.26.06-.93.02-1.86-.1-2.79Z"/>
        <path class="cls-6" d="m6.93,23.2s-4.52-8.08.81-15.6C7.74,7.6,13.29.04,25.49,3.3c0,0-6.73-3.16-13.55-.28,0,0-7.46,3.05-7.64,12.32,0,0-.26,3.56,2.63,7.86Z"/>
        <path class="cls-7" d="m14.68,28.36s7.27,1.84,12.42-4.37c0,0,4.58-4.92,1.59-12.46l2.74-.84s2.22,5.55-.87,11.08c0,0-2.44,4.77-7.74,6.29,0,0-3.8,1.39-8.13.29Z"/>
      </g>
      <path class="cls-9" d="m8.77,2.64S-3.19,12.31,6.74,26.54c0,0,6,8.86,21.41,3.53-.02-.02-6.2,5.87-16,2.97,0,0-10.43-2.77-11.72-14.58,0,0-1.45-10.06,8.33-15.82Z"/>
    </g>
    <g>
      <path class="cls-4" d="m16.61,26.76c-.83-.08-1.64-.26-2.41-.53l.39-1.08c.69.24,1.41.4,2.14.47.28.03.57.04.85.05v1.15c-.33,0-.65-.02-.97-.05Zm1.34.05l-.03-1.15c1.02-.03,2.02-.22,2.98-.58l.41,1.07c-1.08.4-2.21.62-3.36.65Zm3.71-.79l-.45-1.06c.94-.39,1.8-.93,2.57-1.6l.78.86c-.86.76-1.83,1.36-2.89,1.8Zm3.17-2.06l-.81-.83c.74-.7,1.35-1.51,1.81-2.4l1.04.52c-.52,1.01-1.21,1.92-2.04,2.71Zm2.21-3.05l-1.06-.48c.43-.91.7-1.88.8-2.88v-.02s1.16.12,1.16.12v.02c-.12,1.14-.42,2.23-.9,3.26Zm-.23-3.72c.06-1.01-.04-2.01-.31-2.97l1.13-.31c.31,1.09.43,2.22.35,3.35l-1.17-.07Zm-.41-3.29c-.31-.96-.78-1.85-1.39-2.66l.94-.69c.69.91,1.22,1.92,1.56,3l-1.11.35Zm-17.29-2.93c-1.22,1.83-1.86,4.05-1.69,6.39.29,3.91,2.78,7.15,6.19,8.64l.2-.45c-3.25-1.42-5.62-4.51-5.89-8.23-.17-2.25.45-4.37,1.63-6.12l-.44-.23Zm1.73.91c-1.06,1.51-1.62,3.37-1.47,5.34.24,3.17,2.26,5.81,5.02,7.02l-.2.45c-2.93-1.29-5.07-4.07-5.32-7.44-.15-2.06.43-4.02,1.52-5.61l.44.23Zm-.64-.34c-1.12,1.63-1.71,3.62-1.55,5.73.26,3.45,2.45,6.3,5.46,7.62l-.2.45c-3.17-1.39-5.48-4.4-5.75-8.04-.17-2.2.45-4.29,1.61-6l.44.23Z"/>
      <path class="cls-3" d="m16.44,23.86h0c-.36-.06-.73-.15-1.07-.26l.31-.96c.3.1.61.17.93.22l-.16.99Zm.55.07l.09-1c.32.03.64.03.96.01l.06,1c-.37.02-.74.02-1.11-.02Zm-2.15-.51c-.34-.14-.68-.3-.99-.49l.52-.86c.27.16.56.3.86.42l-.39.93Zm3.81.48l-.14-1c.31-.04.63-.11.93-.2l.29.96c-.35.1-.72.18-1.09.23Zm-5.27-1.26c-.3-.21-.59-.44-.86-.69l.71-.73c.23.22.48.42.74.6l-.59.82Zm6.88.86l-.36-.94c.3-.11.59-.24.87-.4l.5.88c-.32.18-.66.33-1.01.46Zm-8.13-1.95c-.25-.27-.48-.56-.68-.86l.85-.55c.18.26.37.51.59.74l-.76.67Zm9.61,1.2l-.56-.84c.27-.17.52-.37.76-.58l.68.75c-.27.24-.57.47-.88.67Zm-10.57-2.53c-.18-.32-.34-.65-.47-.99l.96-.35c.11.29.25.58.4.85l-.89.49Zm11.85,1.48l-.74-.7c.22-.23.43-.47.61-.73l.84.58c-.21.3-.45.58-.71.84Zm-12.49-2.99c-.1-.35-.18-.71-.23-1.07l1.01-.14c.04.31.11.62.2.92l-.98.28Zm13.5,1.69l-.88-.52c.16-.27.31-.55.43-.84l.95.38c-.14.34-.31.67-.5.98Zm-13.79-3.3c-.02-.36-.02-.73.02-1.09l1.02.09c-.03.31-.03.63-.01.94l-1.02.06Zm14.48,1.81l-.97-.31c.1-.3.17-.6.23-.92h0s1.01.15,1.01.15h0c-.06.37-.15.73-.26,1.07Zm-14.39-3.44h0c.06-.36.15-.72.26-1.06l.97.31c-.1.29-.17.6-.22.91l-1.01-.16Zm13.7,1.74c.03-.31.03-.63.01-.94l1.02-.06c.02.36.02.73-.02,1.09l-1.02-.09Zm-12.31-2.93l-.95-.38c.14-.34.31-.67.5-.98l.88.51c-.16.27-.31.55-.43.84Zm12.27,1.52c-.04-.31-.11-.62-.2-.92l.98-.28c.1.35.18.71.23,1.07l-1.01.14Zm-.35-1.37c-.11-.29-.25-.58-.4-.85l.89-.49c.18.32.34.65.47.99l-.96.36Z"/>
      <path class="cls-4" d="m15.65,20.88h0c-1.01-.47-1.82-1.28-2.28-2.28l.59-.26c.39.86,1.09,1.56,1.96,1.96h.01s-.14.3-.14.3l-.12.29h0Zm.13-.28h0s0,0,0,0Zm.21.42l.23-.6c.9.34,1.9.34,2.81.02l.22.6c-1.05.37-2.21.36-3.25-.03Zm-2.76-2.76c-.38-1.04-.37-2.17.02-3.2l.61.23c-.34.89-.35,1.87-.02,2.76l-.61.22Zm6.36,2.65l-.27-.58c.88-.39,1.59-1.08,2-1.93h0s.59.26.59.26h0c-.48,1.01-1.3,1.81-2.32,2.26Zm1.87-2.82c.34-.89.34-1.87.02-2.76l.61-.22c.38,1.04.38,2.17-.02,3.2l-.61-.22Z"/>
      <path class="cls-4" d="m9.99,11.88c1.63-2.49,4.48-4.14,7.72-4.14s5.8,1.49,7.47,3.77l.1-.05c-.3-.41-.63-.79-1-1.16-1.76-1.73-4.09-2.68-6.57-2.68s-4.82.95-6.57,2.68c-.47.47-.89.97-1.25,1.52l.1.06Z"/>
      <g>
        <path class="cls-4" d="m20.79,6.99c-.14-.04-.28-.08-.42-.12h0s0,0,0,0l-.02.07c.14.04.28.08.42.12l.02-.07Z"/>
        <path class="cls-4" d="m22.01,7.46c-.13-.06-.27-.12-.4-.17l-.03.07c.13.05.27.11.4.17l.03-.07Z"/>
        <path class="cls-4" d="m22.6,7.76s-.04-.02-.06-.03c0,0,0,0,0,0s0,0,0,0c0,0,0,0,0,0s0,0,0,0,0,0,0,0,0,0,0,0,0,0,0,0c0,0,0,0,0,0-.11-.06-.21-.11-.32-.16h0l-.03.06c.13.06.26.13.39.2l.03-.06Z"/>
        <path class="cls-4" d="m21.41,7.21c-.07-.03-.13-.05-.2-.07h0s0,0,0,0h0s0,0,0,0t0,0h0s0,0,0,0h0s0,0,0,0h0s0,0,0,0t0,0s0,0,0,0,0,0,0,0c0,0,0,0,0,0s0,0,0,0c0,0,0,0,0,0s0,0,0,0c0,0,0,0,0,0h0s0,0,0,0h0s0,0,0,0t0,0s0,0,0,0,0,0,0,0c0,0,0,0,0,0s0,0,0,0c0,0,0,0,0,0s0,0,0,0c0,0,0,0,0,0s0,0,0,0c0,0,0,0,0,0h0s0,0,0,0t0,0s0,0,0,0,0,0,0,0c0,0,0,0,0,0s0,0,0,0,0,0,0,0,0,0,0,0c0,0,0,0,0,0,0,0,0,0,0,0,0,0,0,0,0,0h0s0,0,0,0c0,0,0,0,0,0,0,0,0,0,0,0,0,0,0,0,0,0,0,0,0,0,0,0,0,0,0,0,0,0,0,0,0,0,0,0h0s0,0,0,0h0s0,0-.01,0h0s0,0,0,0h0s0,0,0,0h0s0,0,0,0c-.03,0-.05-.02-.08-.03l-.02.07c.14.05.27.1.41.15l.03-.07Z"/>
        <path class="cls-4" d="m18.21,6.53c-.15,0-.29-.01-.44-.01v.07c.14,0,.29,0,.43.01v-.07Z"/>
        <path class="cls-4" d="m18.87,6.59h0s0,0,0,0h0s0,0,0,0h-.02s0,0,0,0h-.02s0,0,0,0h-.02s0,0,0,0h-.02s0,0,0,0h-.01s0,0,0,0h0s0,0,0,0h0s0,0-.01,0h0s0,0,0,0h0s0,0,0,0h0s0,0-.01,0h0s0,0,0,0h0s0,0,0,0h0c-.09,0-.18-.02-.27-.02v.07c.14.01.28.02.43.04v-.08Z"/>
        <path class="cls-4" d="m20.16,6.82c-.14-.03-.28-.07-.43-.1v.07c.13.03.27.06.41.09l.02-.07Z"/>
        <path class="cls-4" d="m17.66,6.59v-.07h-.09c-.12,0-.23,0-.35,0v.07c.15,0,.29,0,.44,0Z"/>
        <path class="cls-4" d="m25.62,10.21c-.06-.07-.11-.13-.17-.2h0s0,0,0,0h0s0,0,0,0h0s0,0,0,0h0s0,0,0,0c0,0,0,0,0,0,0,0,0,0,0,0t0,0h0s0,0,0,0h0s0,0,0,0h0s-.06-.07-.1-.11l-.05.05c.1.11.19.21.28.32l.06-.05Z"/>
        <path class="cls-4" d="m26.02,10.72s0-.01-.01-.02h0s0,0,0,0h0s0,0,0,0h0s0,0,0,0h0s0,0,0,0h0s0,0,0,0h0s0,0,0,0c0,0,0,0,0,0,0,0,0,0,0,0,0,0,0,0,0,0,0,0,0,0,0,0,0,0,0,0,0,0,0,0,0,0,0,0h0s0,0,0,0c0,0,0,0,0,0,0,0,0,0,0,0h0s0,0,0,0h0s0,0,0,0c0,0,0,0,0,0s0,0,0,0c0,0,0,0,0,0,0,0,0,0,0,0,0,0,0,0,0,0t0,0s0,0,0,0c0,0,0,0,0,0h0s0,0,0,0c0,0,0,0,0,0h0s0,0,0,0c0,0,0,0,0,0,0,0,0,0,0,0,0,0,0,0,0,0,0,0,0,0,0,0,0,0,0,0,0,0,0,0,0,0,0,0h0s0,0,0,0c0,0,0,0,0,0,0,0,0,0,0,0h0s0,0,0,0h0s0,0,0,0c0,0,0,0,0,0,0,0,0,0,0,0h0s0,0,0,0h0s0,0-.01-.01h0s0,0,0,0h0s0,0,0,0h0c-.05-.07-.11-.14-.16-.21l-.06.04c.09.11.18.23.26.34l.06-.04Z"/>
        <path class="cls-4" d="m25.13,9.77l.05-.05c-.1-.1-.2-.21-.31-.31l-.05.05c.1.1.21.2.3.31Z"/>
        <path class="cls-4" d="m23.71,8.45s0,0,0,0c0,0,0,0,0,0h0s0,0,0,0h0s0,0,0,0h0s0,0,0,0t0,0s0,0,0,0c0,0,0,0,0,0,0,0,0,0,0,0t0,0s0,0,0,0c0,0,0,0,0,0,0,0,0,0,0,0,0,0,0,0,0,0,0,0,0,0,0,0,0,0,0,0,0,0,0,0,0,0,0,0,0,0,0,0,0,0,0,0,0,0,0,0,0,0,0,0,0,0h0s0,0,0,0h0s0,0,0,0h0s0,0,0,0c0,0,0,0,0,0,0,0,0,0,0,0,0,0,0,0,0,0,0,0,0,0,0,0h0s0,0,0,0h0s0,0,0,0h0s0,0,0,0c0,0,0,0,0,0,0,0,0,0,0,0h0s0,0,0,0h0s0,0,0,0h0s0,0,0,0h0s0,0,0,0c0,0,0,0,0,0,0,0,0,0,0,0,0,0,0,0,0,0,0,0,0,0,0,0h0s0,0,0,0h0s0,0,0,0h0s0,0,0,0h0s0,0,0,0h0s0,0,0,0h0s0,0,0,0c0,0,0,0,0,0,0,0,0,0,0,0,0,0,0,0,0,0t0,0s0,0,0,0h0s0,0,0,0t0,0s0,0,0,0c0,0,0,0,0,0t0,0s0,0,0,0c0,0,0,0,0,0,0,0,0,0,0,0,0,0,0,0,0,0t0,0s0,0,0,0c0,0,0,0,0,0,0,0,0,0,0,0,0,0,0,0,0,0,0,0,0,0-.01,0h0s0,0,0,0h0s0,0,0,0h0c-.06-.04-.13-.09-.19-.13l-.04.06c.12.08.24.16.36.24l.04-.06Z"/>
        <path class="cls-4" d="m23.16,8.08s-.01,0-.02-.01c0,0,0,0,0,0,0,0,0,0,0,0,0,0,0,0,0,0s0,0,0,0c0,0,0,0,0,0t0,0s0,0,0,0c0,0,0,0,0,0-.07-.04-.14-.08-.21-.13h0s0,0,0,0h0s0,0,0,0h0s-.01,0-.02-.01h0s0,0,0,0h0s0,0,0,0h0s-.01,0-.02-.01h0s0,0,0,0h0s0,0,0,0h0l-.08-.05-.04.06c.13.07.25.15.37.22l.04-.06Z"/>
        <path class="cls-4" d="m24.72,9.27s-.03-.03-.05-.04h0s0,0,0,0h0s0,0,0,0h0s0,0,0,0h0s0,0,0,0t0,0s0,0,0,0,0,0,0,0h0s0,0,0,0h0s0,0,0,0h0s0,0,0,0h0s0,0,0,0h0c-.08-.08-.17-.15-.25-.22l-.05.05c.11.09.22.19.32.29l.05-.05Z"/>
        <path class="cls-4" d="m24.23,8.84l-.08-.07h0s0,0,0,0h0s0,0,0,0c0,0,0,0,0,0,0,0,0,0,0,0h0s0,0,0,0h0s0,0,0,0c0,0,0,0,0,0h0s0,0,0,0h0s0,0,0,0h0s0,0,0,0h0s0,0,0,0h0c-.06-.05-.13-.1-.19-.15h0s0,0,0,0c0,0,0,0,0,0s0,0,0,0c0,0,0,0,0,0h0s0,0,0,0h0s0,0,0,0h0s-.02-.01-.03-.02l-.04.06c.11.09.23.18.34.27l.05-.06Z"/>
        <path class="cls-4" d="m19.52,6.68s-.1-.02-.15-.03h0s0,0,0,0h0s0,0,0,0h0s0,0,0,0h0s0,0,0,0h0s0,0,0,0h0s0,0,0,0h0s0,0,0,0h0s0,0,0,0h0s0,0,0,0h-.02s0,0,0,0h0s0,0,0,0h0s0,0,0,0h0s-.01,0-.02,0h0s0,0,0,0h0s-.01,0-.02,0h0s-.01,0-.02,0h0s0,0,0,0h0s-.01,0-.02,0h0s0,0,0,0h0s0,0,0,0h0s0,0,0,0h0s0,0,0,0h-.01s0,0,0,0h0s0,0,0,0h0s0,0,0,0h0s0,0,0,0h0s0,0,0,0h0s-.05,0-.08-.01v.07c.13.02.28.04.42.07v-.07Z"/>
        <path class="cls-4" d="m10.57,9.39l-.05-.05c-.11.1-.21.2-.31.3l.05.05c.1-.1.2-.2.31-.3Z"/>
        <path class="cls-4" d="m11.05,8.96l-.05-.06s-.01.01-.02.02h0s0,0,0,0c0,0,0,0,0,0h0s0,0,0,0h0s0,0,0,0h0s0,0,0,0h0c-.06.05-.13.11-.19.17h0s0,0,0,0h0s0,0,0,0h0s0,0,0,0h0s0,0,0,0c0,0,0,0,0,0h0s0,0,0,0h0s0,0,0,0h0s0,0,0,0h0s0,0,0,0h0s-.05.04-.07.07l.05.05c.11-.1.22-.19.33-.28Z"/>
        <path class="cls-4" d="m11.57,8.56l-.04-.06h0s0,0,0,0c0,0,0,0,0,0,0,0,0,0,0,0h0s0,0,0,0h0c-.11.09-.23.17-.34.26l.05.06c.11-.09.23-.18.34-.26Z"/>
        <path class="cls-4" d="m9.69,10.33l-.06-.05s-.03.04-.05.06h0s0,0,0,0c0,0,0,0,0,0,0,0,0,0,0,0h0s0,0,0,0h0s0,0,0,0c0,0,0,0,0,0,0,0,0,0,0,0,0,0,0,0,0,0t0,0s0,0,0,0c0,0,0,0,0,0,0,0,0,0,0,0h0s0,0,0,0c0,0,0,0,0,0,0,0,0,0,0,0,0,0,0,0,0,0,0,0,0,0,0,0,0,0,0,0,0,0,0,0,0,0,0,0,0,0,0,0,0,0t0,0s0,0,0,0c0,0,0,0,0,0h0s0,0,0,0h0s0,0,0,0h0s0,0,0,0h0s0,0,0,0h0s0,0,0,0h0s0,0,0,0h0s0,0,0,0h0s0,0,0,0h0s0,0,0,0h0s0,0,0,0,0,0,0,0c0,0,0,0,0,0,0,0,0,0,0,0,0,0,0,0,0,0,0,0,0,0,0,0,0,0,0,0,0,0h0s0,0,0,0h0s0,0,0,0c0,0,0,0,0,0,0,0,0,0,0,0,0,0,0,0,0,0,0,0,0,0,0,0,0,0,0,0,0,0,0,0,0,0,0,0,0,0,0,0,0,0t0,0s0,0,0,0c0,0,0,0,0,0,0,0,0,0,0,0t0,0s0,0,0,0t0,0s0,0,0,0,0,0,0,0c0,0,0,0,0,0,0,0,0,0,0,0,0,0,0,0,0,0t0,0s0,0,0,0h0s0,0,0,0h0s0,0,0,0c0,0,0,0,0,0,0,0,0,0-.01.01h0s0,0,0,0h0s-.07.09-.11.14l.06.04c.08-.11.17-.23.26-.34Z"/>
        <path class="cls-4" d="m9.06,11.17c.07-.11.15-.22.23-.33l-.06-.04c-.04.06-.08.11-.12.17h0s0,0,0,0h0s0,0,0,0h0s0,0,0,0h0s0,0,0,.01h0s0,0,0,0h0s0,0,0,0c0,0,0,0,0,0,0,0,0,0,0,0h0s0,0,0,0h0s0,0,0,0h0s0,0,0,0c0,0,0,0,0,0s0,0,0,0h0s0,0,0,0,0,0,0,0,0,0,0,0,0,0,0,0c0,0,0,0,0,0s0,0,0,0c0,0,0,0,0,0s0,0,0,0,0,0,0,0t0,0s0,0,0,0c0,0,0,0,0,0,0,0,0,0,0,0,0,0,0,0,0,0,0,0,0,0,0,0,0,0,0,0,0,0,0,0,0,0,0,0t0,0s0,0,0,0c0,0,0,0,0,0,0,0,0,0,0,0,0,0,0,0,0,0,0,0,0,0,0,0h0s0,0,0,0h0s0,0,0,0c0,0,0,0,0,0,0,0,0,0,0,0h0s0,0,0,0h0s-.03.05-.05.07l.06.04Z"/>
        <path class="cls-4" d="m12.1,8.2l-.04-.06c-.05.04-.11.07-.16.11h0s0,0,0,0c0,0,0,0,0,0,0,0,0,0,0,0h0s0,0,0,0c0,0,0,0,0,0,0,0,0,0,0,0,0,0,0,0,0,0h0s0,0,0,0t0,0s0,0,0,0c0,0,0,0,0,0,0,0,0,0,0,0h0s0,0,0,0h0s0,0,0,0t0,0s0,0,0,0c0,0,0,0,0,0,0,0,0,0,0,0h0s-.01,0-.02.01h0s0,0,0,0h0s-.03.02-.04.03h0s0,0,0,0h0s0,0,0,0h0s0,0,0,0h0s0,0-.01,0h0s0,0,0,0h0s0,0,0,0h0s0,0,0,0t0,0s0,0,0,0c0,0,0,0,0,0,0,0,0,0,0,0,0,0,0,0,0,0h0s0,0,0,0h0s0,0,0,0h0s0,0,0,0h0s0,0,0,0c-.02.01-.03.02-.05.03l.04.06c.12-.08.24-.16.36-.24Z"/>
        <path class="cls-4" d="m10.11,9.84l-.05-.05h0s-.04.05-.06.07h0s0,0,0,0h0s0,0,0,0,0,0,0,0h0s0,0,0,0h0s0,0,0,0h0c-.06.06-.11.12-.17.18h0s0,0,0,0,0,0,0,0h0s0,0,0,0h0s0,0,0,0h0s0,0,0,0h0s0,0,0,0h0s0,0,0,0h0s0,0,0,0h0s0,0,0,0c0,0,0,0,0,0h0s0,0,0,0h0s0,0,0,0h0s-.01.01-.01.02h0s0,0,0,0l.06.05c.09-.11.19-.22.29-.32Z"/>
        <path class="cls-4" d="m12.66,7.86l-.04-.06c-.13.07-.25.14-.38.22l.04.06c.12-.07.25-.15.37-.22Z"/>
        <path class="cls-4" d="m15.07,6.91l-.02-.07s-.09.02-.14.04h0s0,0,0,0h0s0,0,0,0h0s0,0-.01,0h0s0,0,0,0h0s0,0,0,0h0s0,0,0,0,0,0,0,0c0,0,0,0,0,0h0s0,0,0,0h0s0,0,0,0,0,0,0,0c0,0,0,0,0,0s0,0,0,0c0,0,0,0,0,0s0,0,0,0c0,0,0,0,0,0,0,0,0,0,0,0h0s0,0,0,0h0s0,0,0,0h0s0,0,0,0c0,0,0,0,0,0,0,0,0,0,0,0,0,0,0,0,0,0,0,0,0,0,0,0s0,0,0,0c0,0,0,0,0,0h0s0,0,0,0h0s0,0-.01,0h0s0,0,0,0h0s0,0,0,0h0c-.06.02-.12.04-.18.05l.02.07c.14-.04.28-.08.42-.12Z"/>
        <path class="cls-4" d="m17,6.61v-.07c-.12,0-.23.02-.35.03h0s0,0-.01,0h0s0,0,0,0h-.03s0,0,0,0h0s0,0,0,0h0s0,0,0,0h0s0,0,0,0h0s0,0,0,0v.07c.15-.01.29-.02.44-.03Z"/>
        <path class="cls-4" d="m16.35,6.67v-.07c-.15.02-.3.04-.44.06v.07c.15-.02.3-.04.44-.06Z"/>
        <path class="cls-4" d="m15.71,6.77v-.07s-.05,0-.07.01h0s0,0,0,0h0s0,0-.01,0h0s0,0,0,0h0s0,0,0,0h0s0,0,0,0h0s0,0-.01,0h0s0,0,0,0h0s0,0,0,0h0s0,0,0,0h0s0,0,0,0h0s0,0,0,0h0s0,0,0,0h0s0,0,0,0h0s0,0,0,0h0s0,0,0,0h0s0,0,0,0h0s0,0,0,0h0s0,0,0,0h0s0,0,0,0h0s0,0,0,0h0s0,0,0,0h0s0,0,0,0h0s0,0,0,0h0s0,0,0,0h0s0,0,0,0h0s0,0,0,0h0s0,0,0,0h0s0,0,0,0h0s0,0,0,0h0s0,0,0,0h0s0,0,0,0h0s0,0,0,0h0s0,0,0,0h0s0,0,0,0h0s0,0-.01,0h0s0,0,0,0h0s0,0,0,0h0s0,0,0,0h0s0,0-.01,0h0s0,0,0,0h0c-.06.01-.12.03-.18.04l.02.07c.14-.03.28-.06.42-.09Z"/>
        <path class="cls-4" d="m13.24,7.57l-.03-.07s-.09.04-.14.07h0s0,0,0,0h0s0,0-.01,0c0,0,0,0,0,0s0,0,0,0c0,0,0,0,0,0s0,0,0,0,0,0,0,0,0,0,0,0,0,0,0,0c0,0,0,0,0,0,0,0,0,0,0,0h0c-.07.04-.15.07-.22.11l.03.06c.13-.07.26-.13.39-.19Z"/>
        <path class="cls-4" d="m13.84,7.31l-.03-.07c-.1.04-.2.08-.3.12,0,0,0,0,0,0h0s0,0-.01,0t0,0s0,0,0,0,0,0,0,0,0,0,0,0,0,0,0,0,0,0,0,0,0,0,0,0h0s0,0-.01,0h0s-.04.02-.06.03l.03.07c.13-.06.27-.11.4-.17Z"/>
        <path class="cls-4" d="m14.45,7.09l-.02-.07h0s-.08.03-.12.04h0s0,0,0,0h0s0,0,0,0h0s0,0,0,0h0s0,0,0,0t0,0s0,0,0,0,0,0,0,0t0,0s0,0,0,0,0,0,0,0c0,0,0,0,0,0,0,0,0,0,0,0,0,0,0,0,0,0h0s-.01,0-.02,0h0c-.06.02-.11.04-.17.06h0s0,0,0,0h0s0,0,0,0c0,0,0,0,0,0,0,0,0,0,0,0s0,0,0,0,0,0,0,0,0,0,0,0c0,0,0,0,0,0,0,0,0,0,0,0h0s0,0,0,0h0s-.03.01-.05.02l.03.07c.13-.05.27-.1.41-.14Z"/>
      </g>
      <path class="cls-4" d="m17.96,28.29l-.02-1.08h.07s.03,1.08.03,1.08h-.08Zm-.61,0h-.08s.04-1.08.04-1.08h.07s-.03,1.08-.03,1.08Zm1.3-.03l-.09-1.07h.07s.09,1.07.09,1.07h-.08Zm-1.98,0h-.07s.1-1.08.1-1.08h.07s-.09,1.08-.09,1.08Zm2.67-.07l-.15-1.07h.07s.15,1.06.15,1.06h-.07Zm-3.35,0h-.08s.16-1.08.16-1.08h.07s-.15,1.08-.15,1.08Zm4.03-.1l-.21-1.06h.07s.22,1.04.22,1.04h-.07Zm-4.7-.01l-.08-.02.22-1.05h.07s-.22,1.07-.22,1.07Zm5.37-.14l-.27-1.04.07-.02.28,1.04-.07.02Zm-6.04-.02l-.08-.02.29-1.04.07.02-.28,1.04Zm6.71-.17l-.33-1.03.07-.02.34,1.02-.07.02Zm-7.37-.02l-.07-.02.34-1.02.07.02-.34,1.02Zm8.01-.2l-.39-1.01.06-.02.4,1-.07.03Zm-8.66-.02l-.07-.03.4-1,.07.03-.4,1Zm9.3-.24l-.45-.98.06-.03.45.98-.07.03Zm-9.93-.03l-.07-.03.46-.98.06.03-.46.98Zm10.55-.27l-.5-.96.06-.03.51.95s-.05.02-.07.04Zm-11.16-.03l-.07-.04.52-.95.06.03-.51.95Zm11.77-.3l-.56-.93.06-.03.57.92-.07.04Zm-12.36-.04l-.07-.04.57-.92.06.04-.57.92Zm12.94-.32l-.61-.89.06-.04.62.89-.06.04Zm-13.52-.04l-.06-.04.63-.88.06.04-.62.89Zm14.08-.35l-.66-.86.05-.04.67.85-.06.05Zm-14.64-.05l-.06-.05.68-.85.05.04-.67.85Zm15.17-.38l-.71-.82.05-.04.72.81-.06.05Zm-15.7-.05l-.06-.05.72-.81.05.04-.72.82Zm16.21-.4l-.76-.78.05-.05.76.77-.06.05Zm-16.72-.05l-.05-.05.77-.77.05.05-.76.77Zm17.2-.43l-.8-.73.05-.05.81.73-.05.05Zm-17.68-.06l-.05-.05.81-.73.05.05-.81.73Zm18.13-.45l-.84-.69.04-.05.85.68-.05.06Zm-18.58-.06l-.05-.06.85-.68.04.05-.85.68Zm19-.47l-.88-.64.04-.05.89.63-.05.06Zm-19.43-.06l-.04-.06.89-.63.04.06-.89.63Zm19.82-.49l-.92-.59.04-.06.92.58-.04.06Zm-20.21-.06l-.04-.06.92-.58.04.06-.92.58Zm20.57-.51l-.95-.54.03-.06.95.53-.04.07Zm-20.92-.06l-.04-.07.96-.52.03.06-.95.53Zm21.25-.53l-.98-.48.03-.06.98.48-.03.07Zm-21.57-.06l-.03-.07.99-.47.03.06-.98.48Zm21.86-.55l-1-.43.03-.06,1.01.42s-.02.05-.03.07Zm-22.14-.06l-.03-.07,1.01-.41.03.06-1.01.42Zm22.4-.57l-1.03-.37.02-.07,1.03.36-.03.07Zm-22.65-.06l-.03-.07,1.03-.35.02.06-1.03.36Zm22.87-.58l-1.05-.31.02-.07,1.05.3-.02.07Zm-23.08-.06l-.02-.07,1.05-.3.02.07-1.05.3Zm23.26-.59l-1.07-.25.02-.07,1.07.24-.02.07Zm-23.43-.06l-.02-.07,1.07-.24.02.07-1.07.24Zm23.57-.6l-1.08-.19v-.07s1.09.18,1.09.18v.07Zm-23.71-.06v-.07s1.07-.18,1.07-.18v.07s-1.07.18-1.07.18Zm23.81-.61l-1.09-.13v-.07s1.1.12,1.1.12v.08Zm-23.91-.06v-.08s1.08-.11,1.08-.11v.07s-1.08.12-1.08.12Zm23.97-.61l-1.09-.07v-.07s1.1.06,1.1.06v.08Zm-24.03-.06v-.07s1.09-.06,1.09-.06v.07s-1.09.06-1.09.06Zm24.05-.61h-1.09v-.1h1.1v.1Zm-22.98-.06h-1.1v-.07h1.1v.07Zm21.87-.58v-.07s1.09-.06,1.09-.06v.08s-1.09.06-1.09.06Zm-21.85-.03l-1.09-.06v-.07s1.1.06,1.1.06v.07Zm21.8-.58v-.07s1.08-.12,1.08-.12v.07s-1.08.12-1.08.12Zm-21.75-.03l-1.09-.12v-.07s1.1.13,1.1.13v.07Zm21.66-.57v-.07s1.07-.18,1.07-.18v.07s-1.07.18-1.07.18Zm-21.57-.03l-1.08-.18v-.08s1.09.19,1.09.19v.07Zm21.45-.57l-.02-.07,1.07-.25.02.07-1.07.24Zm-21.33-.03l-1.07-.24.02-.07,1.07.25-.02.07Zm21.17-.56l-.02-.06,1.05-.31.02.07-1.05.3Zm-21.02-.03l-1.05-.3.02-.07,1.05.31-.02.07Zm20.83-.55l-.02-.07,1.03-.36.02.07-1.03.36Zm-20.64-.03l-1.03-.36.03-.07,1.03.37-.02.07Zm20.41-.54l-.03-.06,1.01-.42s.02.05.03.07l-1.01.41Zm-20.18-.03l-1.01-.42.03-.07,1.01.43-.03.06Zm19.93-.53l-.03-.06.98-.48s.02.05.03.07l-.99.47Zm-19.67-.03l-.98-.48.03-.07.98.48-.03.06Zm19.38-.51l-.03-.06.95-.53s.03.05.04.07l-.96.52Zm-19.09-.03l-.95-.53.04-.07.95.54-.03.06Zm18.77-.49l-.04-.06.92-.58.04.06-.93.58Zm-18.44-.03l-.92-.58.04-.06.92.59-.04.06Zm18.09-.47l-.04-.05.88-.64.05.06-.89.63Zm-17.74-.03l-.89-.63.05-.06.88.64-.04.06Zm17.36-.45l-.04-.05.85-.68.05.06-.85.68Zm-16.98-.04l-.85-.68.05-.06.85.68-.05.06Zm16.57-.43l-.05-.05.81-.73.05.06-.81.72Zm-16.16-.03l-.81-.73.05-.06.8.73-.05.05Zm15.73-.41l-.05-.05.76-.77.06.05-.77.77Zm-15.3-.03l-.76-.77.05-.05.76.78-.05.05Zm14.84-.39l-.05-.05.72-.82.06.05-.72.81Zm-14.38-.03l-.72-.81.06-.05.71.82-.05.05Zm13.9-.36l-.06-.04.67-.85.06.05-.67.85Zm-13.41-.03l-.67-.85.06-.05.67.86-.06.04Zm12.91-.34l-.06-.04.62-.89.06.04-.62.88Zm-12.4-.03l-.62-.89s.04-.03.06-.04l.61.89-.06.04Zm11.88-.31l-.06-.03.56-.92s.05.03.07.04l-.57.92Zm-11.36-.02l-.57-.92.07-.04.56.93-.06.04Zm10.81-.28l-.06-.03.51-.95.07.04-.52.95Zm-10.27-.02l-.51-.95.07-.04.51.96-.06.03Zm9.71-.26l-.06-.03.46-.98.07.03-.46.98Zm-9.15-.02l-.46-.98s.05-.02.07-.03l.45.98-.06.03Zm8.58-.23l-.07-.03.4-1,.07.03-.4,1Zm-8-.01l-.4-1,.07-.03.4,1-.07.03Zm7.41-.2l-.07-.02.34-1.03.07.02-.34,1.02Zm-6.83-.01l-.34-1.02.07-.02.33,1.03-.06.02Zm6.23-.17l-.07-.02.28-1.04.07.02-.28,1.04Zm-5.63,0l-.28-1.04.07-.02.27,1.04-.07.02Zm5.02-.13h-.07s.22-1.07.22-1.07h.07s-.22,1.07-.22,1.07Zm-4.42,0l-.22-1.06.08-.02.21,1.06h-.07Zm3.8-.1h-.07s.15-1.08.15-1.08h.07s-.16,1.08-.16,1.08Zm-3.18,0l-.16-1.07h.08s.15,1.06.15,1.06h-.07Zm2.56-.07h-.07s.09-1.08.09-1.08h.08s-.1,1.08-.1,1.08Zm-1.94,0l-.09-1.07h.07s.09,1.07.09,1.07h-.07Zm1.32-.03h-.07s.03-1.08.03-1.08h.08s-.04,1.08-.04,1.08Zm-.69,0l-.03-1.08h.08s.03,1.07.03,1.07h-.07Z"/>
    </g>
    <ellipse class="cls-5" cx="17.65" cy="16.62" rx="6.41" ry="6.31"/>
  </g>
  <text class="cls-2" transform="translate(38.91 23.07) scale(1.02 1)"><tspan x="0" y="0">HUNTSJOB</tspan></text>
</svg>